<?xml version="1.0" standalone="no"?>
<!DOCTYPE svg PUBLIC "-//W3C//DTD SVG 1.1//EN" "http://www.w3.org/Graphics/SVG/1.1/DTD/svg11.dtd" >
<!--
2013-9-30: Created.
-->
<svg>
<metadata>
Created by iconfont
</metadata>
<defs>

<font id="iconfont" horiz-adv-x="1024" >
  <font-face
    font-family="iconfont"
    font-weight="500"
    font-stretch="normal"
    units-per-em="1024"
    ascent="896"
    descent="-128"
  />
    <missing-glyph />
    
    <glyph glyph-name="f_control-01" unicode="&#59765;" d="M256.62 169.8c0-14.01 1.12-27.77 3.32-41.18h504.12c2.2 13.41 3.32 27.17 3.32 41.18V384c0 91.24-48.68 175.55-127.69 221.17-79.02 45.62-176.37 45.62-255.38 0C305.29 559.55 256.62 475.24 256.62 384v-214.2zM308.88 632.36l-67.71 67.68-45.21-45.18 67.78-67.67zM828.04 654.83l-45.18 45.21-67.67-67.78 45.17-45.14zM480.08 799h63.85v-95.77h-63.85zM831.23 415.92H927v-63.85h-95.77zM128.93 96.7h766.15v-127.69H128.93zM97 415.92h95.77v-63.85H97z"  horiz-adv-x="1024" />

    
    <glyph glyph-name="f_adopt" unicode="&#59766;" d="M579.88 559.18h-355.4a24.62 24.62 0 0 1 0.17-49.23h355.8a24.62 24.62 0 0 1-0.57 49.23zM453.25 367H224.48a24.62 24.62 0 0 1 0.17-49.23h229.17a24.62 24.62 0 0 1-0.57 49.23z m365.28-84.39l-0.24-0.22L698.8 172.14l-43.19 35.26-0.44 0.35a18.94 18.94 0 0 1-23.76-29.48l0.25-0.21 54.93-44.84 0.44-0.35a21.79 21.79 0 0 1 26 0.84l0.29 0.27L844 254.56l0.41 0.39a18.94 18.94 0 0 1-25.86 27.67z m-79.25 122.22c104.08 0 188.45-84.36 188.45-188.43S843.36 28 739.28 28s-188.45 84.33-188.45 188.4 84.37 188.43 188.45 188.43zM674 749.51a90.89 90.89 0 0 0 90.89-90.88v-226.86a223 223 0 0 1-25.57 1.47c-120.81 0-218.75-97.51-218.75-217.79 0-87 51.22-162.07 125.28-197H187.16a90.89 90.89 0 0 0-90.88 90.89V658.63a90.88 90.88 0 0 0 90.88 90.88z"  horiz-adv-x="1024" />

    
    <glyph glyph-name="f_all" unicode="&#59767;" d="M97 84.51c0-25.35 22.94-45.88 49.91-45.88H604.3a192 192 0 0 0-30.76 104.51c0 106.51 86.37 192.86 192.87 192.86a192.18 192.18 0 0 0 76-15.55V435.88h-49.95V783.62H146.91v-347.74H97z m99.41 600.1H743v-248.73H196.41z m49.91-149.32h446.74v-49.49H246.32zM766.84 301.9a153.37 153.37 0 0 0 61.81-12.57A165.7 165.7 0 0 0 879.7 255a163.32 163.32 0 0 0 34.51-50.51 155.3 155.3 0 0 0 0-123.39 164.17 164.17 0 0 0-34.51-50.61 161 161 0 0 0-51.05-33.88 156.55 156.55 0 0 0-61.81-12.26c-22.37 0-43.26 4-62.65 12.26a160.17 160.17 0 0 0-50.92 33.88 164.17 164.17 0 0 0-34.63 50.61 155.19 155.19 0 0 0 0 123.39 163.68 163.68 0 0 0 85.55 84.82q29.1 12.69 62.65 12.59z m99-145a60.32 60.32 0 0 1 8 12.26c2.45 4.79 1.7 9.16-2.13 13l-6.92 7.25c-3.62 3.84-6 6-6.93 6.5-4.91 3.3-9.49 3.83-13.85 1.38a56.81 56.81 0 0 1-13.11-10.12q-16.5-16.33-33.14-32.5-15.53-15.06-30.9-30.27a21.39 21.39 0 0 0-11.29-6.17c-4.16-0.63-7.46 0.63-9.91 4l-6.82 7.13q-5 5.37-9.91 10.86l-9.8 11.2c-3.2 3.62-5.43 6.19-6.94 7.56a21.35 21.35 0 0 1-9.79 4.69c-3.62 0.75-7.46-0.53-11.29-4l-3.62-3.3a41.71 41.71 0 0 1-5.87-5.76 59.6 59.6 0 0 0-5.85-5.75l-3.62-3.19c-7.25-7.79-6.29-16.63 3-26.74 2.87-3.42 6.71-7.58 11.61-12.69q7.69-8 15.23-16.19c5.43-5.75 10.76-11.4 16.1-17a189.52 189.52 0 0 1 13.85-13.32c3.83-3.93 9.17-5.64 16-5.43s11.94 2.24 15.24 6.08c6.81 6.29 14.6 13.85 23.34 22.8s17.9 17.9 27.27 27.06q14 13.38 27.7 27.06c8.94 8.86 17.15 16.75 24.39 23.46zM246.32 634.7h446.74v-49.5H246.32v49.5z"  horiz-adv-x="1024" />

    
    <glyph glyph-name="f_apply" unicode="&#59768;" d="M615.45 799.07l130.42-119.63h-73.19a58.67 58.67 0 0 0-57.23 59.71z m35.25-350v92.07H234v-92.06zM492.3 272.64v91H234v-92.04h258.3z m150.94 359.11h101.18V351L421.8 17.82H175.48a47.48 47.48 0 0 0-47.07 48.1V750.14a47.48 47.48 0 0 0 45.82 48.93H570v-90.61a75.27 75.27 0 0 1 73.4-76.72h-0.2z m29.44-449.51l89.57 90.4 74.85-76.72L750.43 107l-32.34-32.34-29.86-30.69L658 11.18l-10.37-7.67-10.16-6.22-19.08-9.12a179.68 179.68 0 0 0-23.43-7.67 124.29 124.29 0 0 0-22-6.22c-5.81-1.45-10.16-2.9-16.17-4.56a14.71 14.71 0 0 0-14.72 3.11 18.85 18.85 0 0 0-1.45 15.34A57.67 57.67 0 0 0 545 5l5.81 20.73 7.19 20.69 4.35 13.68a93.44 93.44 0 0 0 14.72 20.73l11.82 12.44 22 23L640.12 147l32.34 33.8z m222.89 84.38a25.71 25.71 0 0 0-8.71-20.73l-8.71-9.12-5.81-7.67a12 12 0 0 0-5.81-6.22l-76.3 76.72a77.44 77.44 0 0 1 11.82 10.78l10.57 11.82a23.43 23.43 0 0 0 23.43 9.12 45.7 45.7 0 0 0 20.73-6A63.7 63.7 0 0 0 875.86 310 86.76 86.76 0 0 0 892 285.3a79.94 79.94 0 0 0 2.9-18.25z"  horiz-adv-x="1024" />

    
    <glyph glyph-name="f_approval" unicode="&#59769;" d="M135.14 44.83h753.71a75.39 75.39 0 0 0-75.38-75.38h-603a75.37 75.37 0 0 0-75.37 75.38zM512 798.54a226.12 226.12 0 0 0 113.1-422v-68h188.39a75.39 75.39 0 0 0 75.38-75.38v-131.9H135.14V233.24a75.39 75.39 0 0 0 75.38 75.38H399v68a226 226 0 0 0-113 187.32l-0.15 8.48C285.89 697.31 387.12 798.54 512 798.54z"  horiz-adv-x="1024" />

    
    <glyph glyph-name="f_complete" unicode="&#59771;" d="M319.27 335.34l131.67-131.67c13.36-11.45 34.35-11.45 45.8 0l236.62 236.62c13.36 13.36 13.36 32.44 0 45.8s-34.35 13.36-45.8 0L473.84 274.28 367 381.14c-13.36 13.36-34.35 13.36-45.8 0a31.18 31.18 0 0 1-1.93-45.8z m492.32 414.08c70.6 0 104.95-40.07 104.95-99.23v-582c0-70.6-36.26-99.23-110.68-99.23H210.5c-74.42 0-101.13 36.26-103 99.23v580.1c0 59.15 19.08 99.23 95.41 99.23h97.32c-1.91-3.82-1.91-9.54-1.91-13.36 0-36.26 28.62-72.51 64.88-72.51h292c34.35 0 63 36.26 63 72.51 0 5.72 0 9.54-1.91 13.36zM603.59 799c11.45 0 22.9-5.72 30.53-13.36s11.45-19.08 11.45-30.53c1.91-22.9-17.17-42-40.07-43.89H412.77c-24.81 1.91-43.89 21-42 43.89-1.91 22.9 17.17 42 42 43.89z"  horiz-adv-x="1024" />

    
    <glyph glyph-name="f_branch" unicode="&#59772;" d="M894.25 31.68C873.73 11.16 845.51 0 816.43 0c-60.72 0-110.31 47.89-110.31 107.75a98.51 98.51 0 0 0 6.88 35.1l-118.91 59.86c-29.93-40.19-77.82-63.28-127.42-63.28a160.86 160.86 0 0 0-95.78 31.64l-59-29.93c3.42-10.26 6-21.38 6-32.5a105.35 105.35 0 0 0-32.5-76.11c-20.52-20.52-48.74-31.64-77.82-31.64-60.72 0-110.32 47.89-110.32 107.75a105.35 105.35 0 0 0 32.5 76.11c20.52 20.52 48.74 31.64 77.82 31.64 35.92 0 70.12-17.1 90.65-46.18l47.89 23.94c-24.8 27.36-40.19 61.57-40.19 100.91 0 80.38 62.43 145.38 142.81 153.93V554.18c-53 7.7-94.07 52.16-94.07 106a105.35 105.35 0 0 0 32.5 76.11C407.66 756.85 435.88 768 465 768c60.72 0 110.32-47.89 110.32-107.75 0-53-40.19-98.34-94.07-106v-106c41.05-4.28 78.67-23.09 105.18-53.87l74.4 29.93a103.79 103.79 0 0 0 23.09 94.92c39.34 45.32 109.46 51.31 155.64 12.83 22.23-18 35.92-44.47 38.48-73.54a105.87 105.87 0 0 0-25.65-78.67c-39.39-45.43-109.5-51.42-155.68-12.94a101 101 0 0 0-23.09 27.36l-68.41-27.36a144.51 144.51 0 0 0 4.28-137.68l117.16-59a111.38 111.38 0 0 0 89.79 44.47c29.08 0 57.3-11.12 77.82-31.64a106.87 106.87 0 0 0 32.5-76.11c-0.01-27.39-11.98-54.75-32.51-75.27z"  horiz-adv-x="1024" />

    
    <glyph glyph-name="f_feedback" unicode="&#59773;" d="M910.73 219.06l-59.24 59L841 288.5l-10.5-10.41-33.9-33.76 80.15-80 0.1 0.09 33.95 33.8 10.42 10.42z m-134.88 4.54l-152.62-152-3.17-3.14-0.88-4.37-14.79-73.77-4.34-21.68 21.74 4.34 74.07 14.76 4.41 0.88 3.17 3.17 152.43 151.8 0.08 0.08zM546.4 409.13c-36-34.76-53.92-64.74-53.92-89.69v-21.28s-2.88-18.25-23.61-18.25-23.61 18.25-23.61 18.25V328.8q0 44.81 56.25 101.46c28.27 29.83 44.18 54.31 47.1 73.22q-2.19 63.7-65.07 70.75-94.49 4.68-92.2-94.39s-1.34-20.41-24.27-20.41-25.24 20.41-25.24 20.41q0 148.62 137.13 146.34 119.18-4.81 123.72-122.67c0-28.34-18.68-59.9-56.28-94.38zM509.37 206a29.67 29.67 0 0 0-59.37 0v7.84a29.67 29.67 0 0 0 59.33 0V206zM754.85 799.4H102.78v-714.58a108.27 108.27 0 0 1 108.6-108h270l6.37 6.44 369.48 374.5 6.23 6.31V691.16A108.47 108.47 0 0 1 754.85 799.4z"  horiz-adv-x="1024" />

    
    <glyph glyph-name="f_piece" unicode="&#59774;" d="M810.74 797.5a9.26 9.26 0 0 1-9.52-0.55c-1-0.66-96.67-65.77-159.92-65.78a76.89 76.89 0 0 0-10.56 0.69c-25.53 3.55-45.67 12.25-67 21.47-30.49 13.18-62 26.81-111.52 26.81-3.71 0-7.52-0.08-11.33-0.23-77.67-3.17-145-23.43-164.83-29.93L265 761.91a9.22 9.22 0 0 1-10.3 2.25L214 747.28a9.22 9.22 0 0 1-5.4-10.82l195.67-760.1a9.22 9.22 0 0 1 15.39-4.28l47.05 46.09a9.23 9.23 0 0 1 2.57 8.51c-0.42 2-41.58 195.77-44.09 239.38-1.33 23.14 7.84 46.94 25.15 65.28 18.71 19.82 56.26 43.43 128.92 43.44 41 0 78.84 5.34 112.39 15.86 27.05 8.48 51.42 20.33 72.43 35.23 36.23 25.69 50 51.56 50.53 52.65a9.18 9.18 0 0 1 1 4.26V789.34a9.23 9.23 0 0 1-4.93 8.16z"  horiz-adv-x="1024" />

    
    <glyph glyph-name="f_return" unicode="&#59775;" d="M690.51 199.35c-7.12 1.12-16.81 1.1-26.83 0.53v60.21a19 19 0 0 1-31 14.68L467 139.24a19 19 0 0 1 0-29.36l165.71-135.53a19 19 0 0 1 31 14.68V76.7c4.56 0.29 8.9 0.47 12.51 0.47 86.67 0 162.93-36 207.12-90.38 2.61-3.21 8.6-1.51 8.3 2.35-9.46 120.49-98.06 193.97-201.13 210.21z m6.87-169.28v-28.67h86.87a18.07 18.07 0 0 1 13.19 5.6c-27.95 12.38-60.33 20-100.06 23.07zM256.13 293.8v53.3a10.18 10.18 0 0 0 10.29 10H461a10.17 10.17 0 0 0 10.29-10v-53.3a10.18 10.18 0 0 0-10.29-10H266.42a10.18 10.18 0 0 0-10.29 10z m0 224.19a10.18 10.18 0 0 0 10.29 10h399.51a10.17 10.17 0 0 0 10.28-10v-53.29a10.18 10.18 0 0 0-10.28-10H266.42a10.17 10.17 0 0 0-10.29 10z m153.44-414.05a28.76 28.76 0 0 0 0 45.4l237.66 189.33c20 15.91 50.15 2.23 50.15-22.74v-78.26c41.16-8.16 75.22-19.55 103.46-34.48-0.67 204.42-0.84 500.11-0.84 500.11 0 11.86-10 21.52-22.15 21.52H658.52v-53.06c0-11.86-10-21.52-22.16-21.52H296c-12.19 0-22.15 9.69-22.15 21.52v53H154.54c-12.18 0-22.15-9.69-22.15-21.52V23c0-11.86 10-21.53 22.15-21.53h383.63z m-92.73 694h298.67q6.12 0 6.12-6.12v-99.62q0-6.12-6.12-6.12H316.84q-6.12 0-6.12 6.12v99.61q0 6.12 6.12 6.12z"  horiz-adv-x="1024" />

    
    <glyph glyph-name="f_route" unicode="&#59776;" d="M860.06 270.2l-109.63 71.56c-12.51 8.65-25.06 17.16-37.54 25.79-24.81 13.53-49.45 27.06-74.21 40.62-13.23 7.78-28.79 14.26-39.29 24.91l-0.88 0.43c49.42 10.25 101 11 152.8 19.61 26.61 3 53.27 6 79.94 9.2v0.45c-4 5.48-15.71 21.18-21.33 24l-20.06-1.7c-24.14-1.48-48.22-2.9-72.43-4.33-18.86-2.9-38.14-0.45-58-3.48-56-5.3-112-10.38-168-15.56 25.34-19.43 50.7-39 75.88-58.45 27.09-18 56.3-32.26 82.51-51q50.13-39.13 100.4-78L751 273q-121-7.62-241.81-15.31l-48.82-2.18c-19.86-3-38.29-3.85-56.73-7.43L377 244.15q-39.54-66.48-78.91-133.06l-0.88-1.3c89.42 19.73 181.88 34.57 272.75 54.55 49.12 8.8 98.4 17.46 147.47 26.24q104.56 17.94 209 35.69v0.48c-22.17 14.34-44.21 28.9-66.37 43.45z m-680 179a85.64 85.64 0 0 0 49.76 54.06c7.34 3 16.43 2.24 24.74 5.26 55.06 0.5 101.8-55.53 78.66-114.88-11.3-29.34-33.36-49.93-68.6-55.5-53.94-8.85-101.46 56.86-84.56 111.02z m151.2-204.4c29.2 40.87 56.8 73.07 74 127.62 38.29 121.89-39.4 221.88-158.54 219.86-9.28-3.69-23.14-2.41-32.39-5.26-27.76-8.64-54.25-25.05-70.52-45.5-14.21-17.71-27.13-35.24-36.21-58.55-21.19-54.6-5.73-112.17 17.9-150.77q40.35-66.87 85-131c15.79-23.33 31.59-46.77 47.38-70.05l1.44-1c9.86 16 19.62 31.92 29.51 47.88 14.06 22.53 27.17 45.36 42.43 66.73z m481.23 355.33c4.75 15.13 14.88 18.16 29.24 24.06 45.37 0.68 46.27-63.55 4.35-69.86-21.31-3.33-40.49 23.77-33.59 45.8z m10.13-98.22c7-10.48 14.23-20.86 21.31-31.39l0.85-0.43c8.5 13.53 16.88 27.06 25.36 40.62 13.11 19.73 27.51 35.12 35.29 61.05 15.11 50.12-20.73 87.27-68.13 86.41l-10.08-1.73c-11.38-3.33-23-10.51-29.69-18.73-5.45-6.75-10.91-14-14.38-22.71-8.93-22.19-2-47.82 7.5-63.25 10.64-16.57 21.29-33.28 31.97-49.84z"  horiz-adv-x="1024" />

    
    <glyph glyph-name="f_time" unicode="&#59777;" d="M852.55 43.27h-50.32v86.4c0 2.21 0 4.42-0.09 6.54v0.44a24.33 24.33 0 0 1-0.09 2.56c-3.18 102-111.78 190.66-193.75 240.27 81.44 49.26 189.86 137.25 193.75 238.41a29.92 29.92 0 0 1 0.27 4.07V724.82h50.32a36.26 36.26 0 0 1 0 72.52H171.36a36.26 36.26 0 0 1 0-72.52h47.31V622a31.75 31.75 0 0 1 0.26-4.07c3.89-101.17 121.15-189.16 202.6-238.5-81.26-49.26-198.53-137-202.5-238a42.51 42.51 0 0 1-0.35-4.77v-93.47h-47.31a36.26 36.26 0 1 1 0-72.52h681.19a36.3 36.3 0 0 1 0 72.6z m-342.4 450.3a36.26 36.26 0 1 0-36.26-36.26 36.25 36.25 0 0 0 36.26 36.26zM473.89 300a36.26 36.26 0 0 0 72.52-0.09v-70.75a36.26 36.26 0 0 0-72.52 0z m213.73-247.79h-355a36.26 36.26 0 0 0 0 72.52h355a36.26 36.26 0 1 0 0-72.52z"  horiz-adv-x="1024" />

    
    <glyph glyph-name="f_wait" unicode="&#59778;" d="M97 559.42V664.31c0 52.53 37.76 96.56 86.15 99.77l5.64 0.17h74.72v0.3H529.6v-205.14H97z m416.25 204.84h322c49.18 0 88.74-42.09 91.64-93.93l0.14-6v-104.91H513.25V764.26zM820.9 237.63a18.88 18.88 0 0 1-18.9-18.88v-82.45h-82.5a18.9 18.9 0 1 1 0-37.8h101.33l2.59 0.17a18.88 18.88 0 0 1 16.32 18.71V218.74a18.88 18.88 0 0 1-18.88 18.88z m0 35.06A154.84 154.84 0 0 0 927 230.81v-136.4c0-50.08-41.26-91-91.78-91H715.35a155.31 155.31 0 0 0 105.48 269.3zM513.25 486.28H927v-207.57a193.08 193.08 0 0 1-262-275.28H188.79c-50.53 0-91.78 40.91-91.78 91V486.31h178.38v-229.77a20.26 20.26 0 0 1 8.4-16.25l2.8-1.73a22.69 22.69 0 0 1 18.54-1.14l3.46 1.69 59.21 35.41 26.53 15.91 26.56-15.91 59.21-35.41a22.62 22.62 0 0 1 22-0.59 20.63 20.63 0 0 1 11 14.87l0.24 3.15V486.31z"  horiz-adv-x="1024" />

    
    <glyph glyph-name="l-add" unicode="&#59320;" d="M512 768c212.064 0 384-171.936 384-384s-171.936-384-384-384S128 171.93600000000004 128 384 299.936 768 512 768z m0-64C335.264 704 192 560.736 192 384s143.264-320 320-320 320 143.264 320 320S688.736 704 512 704z m32-96v-192h192v-64h-192v-192h-64v192H288v64h192V608h64z"  horiz-adv-x="1024" />

    
    <glyph glyph-name="l-bianji" unicode="&#58998;" d="M406.698667 313.62844399999994l429.966222 429.966223 43.463111-43.52-429.966222-429.909334-43.463111 43.463111z m0 0M827.676444 76.91377799999998H213.447111V691.086222h368.526222v61.44H213.447111c-33.792 0-61.44-27.704889-61.44-61.44v-614.172444c0-33.792 27.648-61.44 61.44-61.44h614.172445c33.792 0 61.44 27.648 61.44 61.44V445.383111h-61.44v-368.469333z m0 0"  horiz-adv-x="1024" />

    
    <glyph glyph-name="l-jinyong" unicode="&#59349;" d="M512 734c-193.3 0-350-156.7-350-350s156.7-350 350-350 350 156.7 350 350-156.7 350-350 350z m290-350c0-69.274-24.324-132.847-64.851-182.722L329.278 609.149C379.153 649.6759999999999 442.726 674 512 674c160.162 0 290-129.837 290-290z m-580 0c0 69.274 24.324 132.847 64.851 182.723l407.872-407.872C644.847 118.32399999999996 581.274 94 512 94c-160.162 0-290 129.838-290 290z"  horiz-adv-x="1024" />

    
    <glyph glyph-name="l-kaishi" unicode="&#58914;" d="M729.3 439.2L441 605.7c-19.4 11.2-42.7 11.2-62.1 0s-31-31.3-31-53.8v-333c0-22.4 11.6-42.6 31-53.8 9.7-5.6 20.4-8.4 31-8.4s21.3 2.8 31 8.4l288.4 166.5c19.4 11.2 31 31.3 31 53.8 0.1 22.5-11.5 42.6-31 53.8z m-25-64.2L416 208.5c-5.5-3.2-10.3-1-12.1 0-1.8 1-6 4.2-6 10.5V552c0 6.3 4.2 9.4 6 10.5 1.1 0.6 3.3 1.7 6.1 1.7 1.8 0 3.8-0.4 6-1.7L704.4 396c5.5-3.2 6-8.4 6-10.5 0-2.1-0.6-7.4-6.1-10.5zM920.8 557c-22.4 53-54.5 100.5-95.3 141.4-40.8 40.8-88.4 72.9-141.4 95.3-54.8 23.2-113.1 35-173.1 35s-118.3-11.8-173.1-35c-53-22.4-100.5-54.5-141.4-95.3-40.8-40.8-72.9-88.4-95.3-141.4-23.2-54.8-35-113.1-35-173.1s11.8-118.3 35-173.1c22.4-53 54.5-100.5 95.3-141.4s88.4-72.9 141.4-95.3c54.8-23.2 113.1-35 173.1-35s118.3 11.8 173.1 35c53 22.4 100.5 54.5 141.4 95.3 40.8 40.8 72.9 88.4 95.3 141.4 23.2 54.8 35 113.1 35 173.1S944 502.2 920.8 557zM511-10.899999999999977c-217.7 0-394.8 177.1-394.8 394.8 0 217.7 177.1 394.8 394.8 394.8s394.8-177.1 394.8-394.8c0-217.7-177.1-394.8-394.8-394.8z"  horiz-adv-x="1024" />

    
    <glyph glyph-name="l-Pendingapproval" unicode="&#59725;" d="M779.2 300.266667c-88.533333 0-160.533333-72-160.533333-160.533334s72-160.533333 160.533333-160.533333 160.533333 72 160.533333 160.533333-72 160.533333-160.533333 160.533334z m0-265.066667c-57.066667 0-104.533333 46.933333-104.533333 104.533333 0 57.066667 46.4 104.533333 104.533333 104.533334 57.066667 0 104.533333-46.933333 104.533333-104.533334s-46.933333-104.533333-104.533333-104.533333zM114.133333 139.73333300000002h459.733334v3.2c0 25.6 5.333333 50.133333 15.466666 72.533334H158.933333v57.6c0 9.6 6.933333 17.6 17.6 17.6h196.266667l-5.333333 80.533333c0 1.066667-6.4 91.733333-36.266667 132.266667-21.333333 28.8-33.066667 61.333333-34.666667 94.4 0.533333 33.066667 13.866667 64 36.8 85.333333 20.8 19.2 49.6 30.933333 77.333334 30.933333h25.6c28.8 0 54.933333-10.133333 76.8-30.4 22.4-22.933333 36.8-54.933333 37.333333-84.266666-2.133333-34.666667-13.333333-66.666667-33.6-92.8l-2.133333-2.133334-1.6-2.133333c-26.133333-40-33.6-128-33.6-128.533333L473.6 293.33333300000004h184.533333c26.133333 16 57.066667 25.066667 90.133334 25.066667h5.866666c-15.466667 29.866667-45.866667 49.6-82.133333 49.6h-117.866667c2.133333 29.866667 12.8 79.466667 21.866667 92.8 29.866667 38.4 47.466667 85.866667 49.6 137.6 0 51.733333-23.466667 102.933333-60.266667 139.733333-36.266667 34.133333-81.066667 51.733333-128.533333 51.733334H410.666667c-46.933333 0-94.4-19.2-128.533334-51.733334-38.4-36.8-60.266667-88-60.266666-141.866666 2.133333-49.6 19.2-96.533333 49.6-137.6 8.533333-10.666667 19.2-60.266667 21.866666-92.8H176.533333c-51.733333 0-92.8-41.066667-92.8-92.8v-102.933334c0-17.6 12.8-30.4 30.4-30.4zM587.733333 74.133333H92.8c-4.266667 0-8.533333-4.8-8.533333-10.133333v-54.933333c0-4.8 4.266667-9.6 8.533333-9.6h555.733333c-26.666667 18.666667-48 44.8-60.8 74.666666zM836.8 134.93333299999995l-32.533333 18.666667v18.666667c0 14.933333-12.266667 27.733333-27.733334 27.733333h-1.6c-14.933333 0-27.733333-12.266667-27.733333-27.733333v-37.866667c0.533333-4.8 2.133333-9.066667 3.733333-12.266667 0 0 0-0.533333 0.533334-0.533333 0.533333-0.533333 0.533333-1.066667 1.066666-1.6 0.533333-0.533333 0.533333-1.066667 1.066667-1.6l0.533333-0.533333c2.133333-2.133333 4.8-4.8 7.466667-6.4l46.4-26.666667c13.866667-8 30.4-3.2 38.4 10.133333 9.066667 14.933333 4.266667 32.533333-9.6 40z"  horiz-adv-x="1024" />

    
    <glyph glyph-name="l-approved" unicode="&#59726;" d="M779.2 300.266667c-88.533333 0-160.533333-72-160.533333-160.533334 0-89.066667 72-160.533333 160.533333-160.533333s160.533333 72 160.533333 160.533333c0.533333 88.533333-72 160.533333-160.533333 160.533334z m0-265.066667c-57.066667 0-104.533333 46.933333-104.533333 104.533333s46.4 104.533333 104.533333 104.533334c57.066667 0 104.533333-46.933333 104.533333-104.533334s-46.933333-104.533333-104.533333-104.533333zM114.133333 139.73333300000002h459.733334v3.2c0 25.6 5.333333 50.133333 15.466666 72.533334H158.933333v57.6c0 9.6 6.933333 17.6 17.6 17.6h196.266667l-5.333333 80.533333c0 1.066667-6.4 91.733333-36.266667 132.266667-21.333333 28.8-33.066667 61.333333-34.666667 94.4 0.533333 33.066667 13.866667 64 36.8 85.333333 20.8 19.2 49.6 30.933333 77.333334 30.933333h25.6c28.8 0 54.933333-10.133333 76.8-30.4 22.4-22.933333 36.8-54.933333 37.333333-84.266666-2.133333-34.666667-13.333333-66.666667-33.6-92.8l-2.133333-2.133334-1.6-2.133333c-26.133333-40-33.6-128-33.6-128.533333L473.6 293.33333300000004h184.533333c26.133333 16 57.066667 25.066667 90.133334 25.066667h5.866666c-15.466667 29.866667-45.866667 49.6-82.133333 49.6h-117.866667c2.133333 29.866667 12.8 79.466667 21.866667 92.8 29.866667 38.4 47.466667 85.866667 49.6 137.6 0 51.733333-23.466667 102.933333-60.266667 139.733333-36.266667 34.133333-81.066667 51.733333-128.533333 51.733334H410.666667c-46.933333 0-94.4-19.2-128.533334-51.733334-38.4-36.8-60.266667-88-60.266666-141.866666 2.133333-49.6 19.2-96.533333 49.6-137.6 8.533333-10.666667 19.2-60.266667 21.866666-92.8H176.533333c-51.733333 0-92.8-41.066667-92.8-92.8v-102.933334c0-17.6 12.8-30.4 30.4-30.4z m473.6-65.6H92.8c-4.266667 0-8.533333-4.8-8.533333-10.133333v-54.933333c0-4.8 4.266667-9.6 8.533333-9.6h555.733333c-26.666667 18.666667-48 44.8-60.8 74.666666z m263.466667 116.8h-22.4c-4.8 0-9.6-2.133333-12.8-5.866666l-58.133333-79.466667-22.4 29.333333c-2.666667 3.733333-8 5.866667-12.8 5.866667h-22.4c-2.666667 0-4.8-2.666667-2.666667-5.866667l47.466667-64.533333c5.866667-9.066667 18.666667-9.066667 24.533333 0l82.666667 114.666667c2.133333 2.666667 0 6.933333-1.066667 5.866666z"  horiz-adv-x="1024" />

    
    <glyph glyph-name="f-summary" unicode="&#59194;" d="M882.590476 791.161905H141.409524c-19.504762 0-36.571429-17.066667-36.571429-36.571429v-741.180952c0-19.504762 14.628571-36.571429 36.571429-36.571429h741.180952c19.504762 0 36.571429 14.628571 36.571429 36.571429V754.590476c0 19.504762-17.066667 36.571429-36.571429 36.571429zM382.780952 149.942857c0-4.87619-4.87619-9.752381-9.752381-9.752381h-92.647619c-4.87619 0-9.752381 4.87619-9.752381 9.752381v92.647619c0 4.87619 4.87619 9.752381 9.752381 9.752381h92.647619c4.87619 0 9.752381-4.87619 9.752381-9.752381v-92.647619z m0 185.295238c0-4.87619-4.87619-9.752381-9.752381-9.752381h-92.647619c-4.87619 0-9.752381 4.87619-9.752381 9.752381v92.647619c0 4.87619 4.87619 9.752381 9.752381 9.752381h92.647619c4.87619 0 9.752381-4.87619 9.752381-9.752381V335.23809500000004z m0 185.295238c0-4.87619-4.87619-9.752381-9.752381-9.752381h-92.647619c-4.87619 0-9.752381 4.87619-9.752381 9.752381v92.647619c0 4.87619 4.87619 9.752381 9.752381 9.752381h92.647619c4.87619 0 9.752381-4.87619 9.752381-9.752381v-92.647619z m185.295238-370.590476c0-4.87619-4.87619-9.752381-9.75238-9.752381h-92.64762c-4.87619 0-9.752381 4.87619-9.75238 9.752381v92.647619c0 4.87619 4.87619 9.752381 9.75238 9.752381h92.64762c4.87619 0 9.752381-4.87619 9.75238-9.752381v-92.647619z m0 185.295238c0-4.87619-4.87619-9.752381-9.75238-9.752381h-92.64762c-4.87619 0-9.752381 4.87619-9.75238 9.752381v92.647619c0 4.87619 4.87619 9.752381 9.75238 9.752381h92.64762c4.87619 0 9.752381-4.87619 9.75238-9.752381V335.23809500000004z m0 185.295238c0-4.87619-4.87619-9.752381-9.75238-9.752381h-92.64762c-4.87619 0-9.752381 4.87619-9.75238 9.752381v92.647619c0 4.87619 4.87619 9.752381 9.75238 9.752381h92.64762c4.87619 0 9.752381-4.87619 9.75238-9.752381v-92.647619z m182.857143-370.590476c0-4.87619-4.87619-9.752381-9.752381-9.752381h-92.647619c-4.87619 0-9.752381 4.87619-9.752381 9.752381v92.647619c0 4.87619 4.87619 9.752381 9.752381 9.752381h92.647619c4.87619 0 9.752381-4.87619 9.752381-9.752381v-92.647619z m0 185.295238c0-4.87619-4.87619-9.752381-9.752381-9.752381h-92.647619c-4.87619 0-9.752381 4.87619-9.752381 9.752381v92.647619c0 4.87619 4.87619 9.752381 9.752381 9.752381h92.647619c4.87619 0 9.752381-4.87619 9.752381-9.752381V335.23809500000004z m0 185.295238c0-4.87619-4.87619-9.752381-9.752381-9.752381h-92.647619c-4.87619 0-9.752381 4.87619-9.752381 9.752381v92.647619c0 4.87619 4.87619 9.752381 9.752381 9.752381h92.647619c4.87619 0 9.752381-4.87619 9.752381-9.752381v-92.647619z"  horiz-adv-x="1024" />

    
    <glyph glyph-name="f-error" unicode="&#59195;" d="M974.4 29.866667000000007L537.6 787.733333c-7.466667 10.133333-18.133333 18.133333-28.266667 18.133334s-22.933333-5.333333-28.266666-18.133334L44.266667 29.866667000000007c-12.8-22.933333 2.666667-51.2 28.266666-51.2h873.066667c23.466667 0 41.6 28.266667 28.8 51.2zM466.666667 514.666667c0 4.266667 4.8 8 10.666666 8h64c5.866667 0 10.666667-3.733333 10.666667-8v-229.333334c0-4.266667-4.8-8-10.666667-8h-64c-5.866667 0-10.666667 3.733333-10.666666 8v229.333334z m42.666666-408c-28.266667 0-53.333333 25.066667-53.333333 53.333333s22.4 53.333333 53.333333 53.333333 53.333333-25.066667 53.333334-53.333333-25.066667-53.333333-53.333334-53.333333z"  horiz-adv-x="1024" />

    
    <glyph glyph-name="l-reload" unicode="&#59157;" d="M925.333333 707.733333l-61.866666-48.533333c-80.533333 104.533333-209.6 171.733333-352 171.733333-244.266667 2.666667-445.866667-198.933333-445.866667-445.866666s198.933333-448.533333 448.533333-448.533334c193.6 0 357.333333 123.733333 421.866667 292.8 2.666667 5.333333 0 8-5.333333 10.666667l-61.866667 21.333333c-5.333333 2.666667-8 0-10.666667-5.333333l-8-16c-18.666667-45.866667-45.866667-83.2-77.866666-115.733333s-72.533333-61.866667-115.733334-77.866667c-45.866667-21.333333-93.866667-29.333333-142.4-29.333333-48.533333 0-99.2 8-142.4 29.333333-43.2 18.666667-83.2 45.866667-115.733333 77.866667S194.666667 197.33333300000004 178.666667 240.53333299999997c-21.333333 45.866667-29.333333 93.866667-29.333334 142.4s8 99.2 29.333334 142.4C197.333333 570.666667 224 608 256.533333 640.533333s75.2 61.866667 115.733334 77.866667c45.866667 21.333333 93.866667 29.333333 142.4 29.333333s99.2-8 142.4-29.333333c43.2-18.666667 83.2-45.866667 115.733333-77.866667 10.666667-10.666667 21.333333-21.333333 29.333333-34.666666l-64.533333-48.533334c-8-5.333333-5.333333-13.333333 2.666667-16l187.733333-45.866666c5.333333-2.666667 10.666667 2.666667 10.666667 8V702.4c0 5.333333-8 10.666667-13.333334 5.333333z"  horiz-adv-x="1024" />

    
    <glyph glyph-name="l-poweroff" unicode="&#59158;" d="M722.133333 804.8c-5.866667 2.666667-11.2-2.666667-11.2-8.533333v-70.4c0-8.533333 2.666667-11.2 5.866667-13.866667 22.4-17.066667 48-33.6 67.733333-53.333333 36.8-36.8 64.533333-78.933333 81.6-121.066667 22.4-48 30.933333-98.666667 30.933334-149.333333s-8.533333-104-30.933334-149.333334c-19.733333-48-48-87.466667-81.6-121.066666-33.6-33.6-76.266667-64.533333-121.066666-81.6-48-22.4-98.666667-30.933333-149.333334-30.933334s-104 8.533333-149.333333 30.933334c-48 19.733333-87.466667 48-121.066667 81.6S181.333333 196.79999999999995 161.6 238.93333299999995c-22.4 48-30.933333 98.666667-30.933333 149.333334s8.533333 104 30.933333 149.333333c19.733333 48 48 87.466667 81.6 121.066667 22.4 22.4 42.133333 36.8 67.733333 53.333333 2.666667 2.666667 5.866667 11.2 5.866667 17.066667V798.933333c0 8.533333-8.533333 11.2-11.2 8.533334C150.4 731.733333 43.733333 573.866667 43.733333 393.6c-5.866667-261.866667 205.333333-478.4 467.2-478.4S981.333333 123.73333300000002 981.333333 385.6c-0.533333 185.6-107.2 342.933333-259.2 419.2zM477.333333 334.4h70.4c5.866667 0 8.533333 5.866667 8.533334 8.533333v501.333334c0 5.866667-5.866667 8.533333-8.533334 8.533333H477.333333c-5.866667 0-8.533333-5.866667-8.533333-8.533333v-504c0-5.866667 5.333333-5.866667 8.533333-5.866667z"  horiz-adv-x="1024" />

    
    <glyph glyph-name="l-review" unicode="&#59159;" d="M528.533333 747.2c32.533333 0 62.4-11.733333 86.933334-34.666667 25.6-26.133333 41.6-62.4 42.133333-95.466666-2.133333-39.466667-14.933333-75.733333-37.866667-105.066667l-2.133333-2.666667-1.6-2.666666c-29.866667-45.333333-38.4-145.066667-38.4-146.133334l-6.4-91.2h225.6c11.2 0 19.733333-8 19.733333-19.733333V181.33333300000004h-602.666666v65.6c0 11.2 8 19.733333 19.733333 19.733334h222.933333l-5.866666 91.2c0 1.066667-7.466667 104-41.066667 149.866666-24 32.533333-37.333333 69.333333-39.466667 107.2 0.533333 37.333333 15.466667 72.533333 41.6 97.066667 23.466667 21.866667 56.533333 35.2 88 35.2h28.8m0 85.333333h-29.333333c-53.333333 0-107.2-21.866667-146.133333-58.666666-43.733333-41.6-68.266667-99.733333-68.266667-161.066667 2.666667-56 21.866667-109.866667 56-156.266667 9.6-12.266667 21.866667-68.266667 24.533333-105.066666H233.6c-58.666667 0-105.066667-46.4-105.066667-105.066667v-116.8c0-19.733333 14.4-34.133333 34.133334-34.133333h704.533333c17.066667 0 34.133333 14.4 34.133333 34.133333v119.466667c0 58.666667-46.4 105.066667-105.066666 105.066666h-133.866667c2.666667 34.133333 14.4 90.133333 24.533333 105.066667 34.133333 43.733333 53.866667 97.6 56 156.266667 0 58.666667-26.666667 116.8-68.266666 158.4-41.066667 38.933333-92.266667 58.666667-146.133334 58.666666zM891.733333-63.46666700000003H138.666667c-4.8 0-9.6 5.866667-9.6 11.2v62.4c0 5.866667 4.8 11.2 9.6 11.2h753.6c4.8 0 9.6-5.866667 9.6-11.2v-62.4c-2.666667-5.333333-5.333333-11.2-10.133334-11.2z"  horiz-adv-x="1024" />

    
    <glyph glyph-name="l-search" unicode="&#59160;" d="M945.066667 12.799999999999955l-179.733334 179.733333-2.133333-2.133333c55.466667 67.733333 89.066667 154.666667 89.066667 249.6 0 218.133333-176.533333 394.666667-394.666667 394.666667s-394.666667-176.533333-394.666667-394.666667 176.533333-394.666667 394.666667-394.666667c94.4 0 181.333333 33.066667 249.066667 88.533334l-1.6-1.6 179.733333-179.733334c16.533333-16.533333 43.733333-16.533333 60.266667 0s17.066667 43.733333 0 60.266667z m-487.466667 117.866667c-170.666667 0-309.333333 138.666667-309.333333 309.333333s138.666667 309.333333 309.333333 309.333333 309.333333-138.666667 309.333333-309.333333-138.666667-309.333333-309.333333-309.333333z"  horiz-adv-x="1024" />

    
    <glyph glyph-name="l-right" unicode="&#59161;" d="M211.733333 834.133333v-92.266666c0-7.466667 2.666667-12.8 7.466667-15.466667L690.133333 384l-467.733333-342.4c-5.333333-2.666667-10.133333-10.133333-10.133333-15.466667v-92.266666c0-7.466667 10.133333-12.8 15.466666-7.466667L816 353.6c20.266667 15.466667 20.266667 48.533333 0 64L230.4 842.133333c-8.533333 2.133333-18.666667-2.666667-18.666667-8z"  horiz-adv-x="1024" />

    
    <glyph glyph-name="l-up" unicode="&#59162;" d="M61.866667 83.73333300000002h92.266666c7.466667 0 12.8 2.666667 15.466667 7.466667L512 562.133333l342.4-467.733333c2.666667-5.333333 10.133333-10.133333 15.466667-10.133333h92.266666c7.466667 0 12.8 10.133333 7.466667 15.466666L542.4 688c-15.466667 20.266667-48.533333 20.266667-64 0L53.866667 102.39999999999998c-2.133333-8.533333 2.666667-18.666667 8-18.666667z"  horiz-adv-x="1024" />

    
    <glyph glyph-name="l-down" unicode="&#59163;" d="M962.133333 684.266667h-92.266666c-7.466667 0-12.8-2.666667-15.466667-7.466667L512 205.866667 169.6 673.6c-2.666667 5.333333-10.133333 10.133333-15.466667 10.133333H61.866667c-7.466667 0-12.8-10.133333-7.466667-15.466666L481.6 80c15.466667-20.266667 48.533333-20.266667 64 0l424.533333 585.6c2.133333 8.533333-2.666667 18.666667-8 18.666667z"  horiz-adv-x="1024" />

    
    <glyph glyph-name="l-left" unicode="&#59164;" d="M812.266667-66.133333v92.266666c0 7.466667-2.666667 12.8-7.466667 15.466667L333.866667 384l467.733333 342.4c5.333333 2.666667 10.133333 10.133333 10.133333 15.466667V834.133333c0 7.466667-10.133333 12.8-15.466666 7.466667L208 414.4c-20.266667-15.466667-20.266667-48.533333 0-64l585.6-424.533333c8.533333-2.133333 18.666667 2.666667 18.666667 8z"  horiz-adv-x="1024" />

    
    <glyph glyph-name="l-close" unicode="&#59165;" d="M892.266667 26.66666699999996c3.2-3.733333 3.2-5.333333 3.2-5.866667 0-9.066667-5.866667-11.733333-11.733334-11.733333h-89.6l-282.666666 304.533333-282.666667-304.533333H139.2c-5.866667 0-11.733333 5.866667-11.733333 11.733333 0 3.2 0.533333 3.2 3.2 5.866667l319.466666 357.333333-319.466666 357.333333c-2.666667 2.666667-3.2 3.733333-3.2 5.866667 0 5.866667 5.866667 11.733333 11.733333 11.733333h89.6l282.666667-304.533333 282.666666 304.533333h89.6c5.866667 0 11.733333-5.866667 11.733334-11.733333 0-2.666667-0.533333-3.2-3.2-5.866667l-319.466667-357.333333 319.466667-357.333333z"  horiz-adv-x="1024" />

    
    <glyph glyph-name="l-check" unicode="&#59166;" d="M997.866667 700.266667L419.2 71.46666700000003c-16.533333-25.066667-52.8-25.066667-69.333333 0L22.4 462.4c-5.333333 8.533333 0 16.533333 8.533333 16.533333h74.666667c13.866667 0 27.733333-5.333333 36.266667-16.533333l244.266666-291.2 492.266667 529.066667c8.533333 11.2 21.866667 16.533333 36.266667 16.533333h80.533333c2.666667 3.2 8-8 2.666667-16.533333z"  horiz-adv-x="1024" />

    
    <glyph glyph-name="l-topping" unicode="&#59167;" d="M897.219048 769.219048h-780.190477c-4.87619 0-9.752381-4.87619-9.752381-7.314286v-68.266667c0-4.87619 4.87619-7.314286 9.752381-7.314285h782.628572c4.87619 0 9.752381 4.87619 9.752381 7.314285V761.904762c0 4.87619-4.87619 7.314286-12.190476 7.314286z m-380.342858-209.676191c-4.87619 4.87619-9.752381 4.87619-14.628571 0l-126.780952-160.914286c-4.87619-4.87619 0-14.628571 7.314285-14.628571h82.895238v-380.342857c0-4.87619 4.87619-7.314286 7.314286-7.314286h68.266667c4.87619 0 7.314286 4.87619 7.314286 7.314286V386.438095h82.895238c7.314286 0 12.190476 7.314286 7.314285 14.628572l-121.904762 158.47619z"  horiz-adv-x="1024" />

    
    <glyph glyph-name="l-download" unicode="&#59168;" d="M521.6 204.26666699999998l120 153.6c4.8 6.933333 0 14.4-7.466667 14.4h-80.533333v368c0 2.666667-2.666667 7.466667-7.466667 7.466666H480.533333c-2.666667 0-7.466667-2.666667-7.466666-7.466666v-368H392.533333c-7.466667 0-12.266667-9.6-7.466666-14.4l122.133333-153.6c4.8-4.8 9.6-4.8 14.4 0zM909.333333 264.53333299999997h-65.6c-4.8 0-7.466667-4.8-7.466666-7.466666v-165.866667H187.733333v165.866667c0 4.8-4.8 7.466667-7.466666 7.466666H112c-4.8 0-7.466667-4.8-7.466667-7.466666V42.66666699999996c0-19.733333 17.066667-34.133333 34.133334-34.133334h743.466666c19.733333 0 34.133333 17.066667 34.133334 34.133334v214.4c0.533333 4.8-2.133333 7.466667-6.933334 7.466666z"  horiz-adv-x="1024" />

    
    <glyph glyph-name="l-send" unicode="&#59169;" d="M909.409524 405.942857L126.780952 798.47619c-4.87619 2.438095-9.752381 2.438095-12.190476 2.438096-7.314286-2.438095-12.190476-9.752381-12.190476-17.066667l80.457143-329.142857c2.438095-4.87619 4.87619-7.314286 9.752381-9.752381l138.971428-46.32381-136.533333-48.761904c-4.87619-2.438095-7.314286-7.314286-9.752381-9.752381L102.4 6.095237999999995c0-4.87619 0-7.314286 2.438095-9.752381 4.87619-7.314286 12.190476-9.752381 19.504762-7.314286l785.066667 390.095239c2.438095 2.438095 7.314286 4.87619 7.314286 7.314285 4.87619 7.314286 2.438095 14.628571-7.314286 19.504762zM197.485714 98.74285699999996l46.32381 192.609524 277.942857 95.085714c2.438095 0 4.87619 2.438095 4.87619 4.876191 2.438095 4.87619 0 7.314286-4.87619 9.752381L243.809524 496.152381 197.485714 688.7619050000001l587.580953-295.009524L197.485714 98.74285699999996z"  horiz-adv-x="1024" />

    
    <glyph glyph-name="l-skin" unicode="&#59170;" d="M832.533333 702.933333v-189.333333h-119.466666V64h-400V513.6H193.6v186.666667h133.866667c32-73.6 103.466667-122.133333 185.6-122.133334 46.4 0 91.733333 16 128 44.8 26.666667 21.333333 47.466667 48.533333 60.8 79.466667h130.666666m41.066667 85.866667H666.666667c-17.066667 0-31.466667-12.266667-36.8-31.466667-12.266667-53.866667-60.8-92.8-116.8-92.8-56 0-102.4 38.933333-114.666667 92.8-4.8 19.733333-19.733333 29.333333-36.8 29.333333H152c-24.533333 0-43.733333-19.733333-43.733333-43.733333v-269.866667c0-24.533333 19.733333-43.733333 43.733333-43.733333h75.733333v-405.866667c0-24.533333 19.733333-43.733333 43.733334-43.733333h482.666666c24.533333 0 43.733333 19.733333 43.733334 43.733333v405.333334h75.733333c24.533333 0 43.733333 19.733333 43.733333 43.733333v272c2.666667 24.533333-19.2 44.266667-43.733333 44.266667z"  horiz-adv-x="1024" />

    
    <glyph glyph-name="l-save" unicode="&#59171;" d="M899.657143 605.866667L736.304762 774.095238c-4.87619 4.87619-19.504762 17.066667-26.819048 17.066667H141.409524c-19.504762 0-34.133333-14.628571-34.133334-31.695238v-748.495238c0-17.066667 14.628571-31.695238 31.695239-31.695239h748.495238c17.066667 0 31.695238 14.628571 31.695238 31.695239V559.542857c0 17.066667-7.314286 34.133333-19.504762 46.32381zM382.780952 718.019048h260.876191v-104.838096H382.780952V718.019048z m463.238096-668.038096H177.980952V718.019048H316.952381V579.0476189999999c0-17.066667 14.628571-31.695238 31.695238-31.695238h324.266667c17.066667 0 31.695238 14.628571 31.695238 31.695238V696.07619l138.971428-138.971428v-507.12381zM512 454.704762c-80.457143 0-146.285714-65.828571-146.285714-146.285714s65.828571-146.285714 146.285714-146.285715 146.285714 65.828571 146.285714 146.285715-65.828571 146.285714-146.285714 146.285714z m0-226.742857c-43.885714 0-80.457143 36.571429-80.457143 80.457143s36.571429 80.457143 80.457143 80.457142 80.457143-36.571429 80.457143-80.457142-36.571429-80.457143-80.457143-80.457143z"  horiz-adv-x="1024" />

    
    <glyph glyph-name="l-setting" unicode="&#59172;" d="M512 474.666667c24 0 46.933333-9.6 64-26.666667s26.666667-40 26.666667-64-9.6-46.933333-26.666667-64-40-26.666667-64-26.666667-46.933333 9.6-64 26.666667-26.666667 40-26.666667 64 9.6 46.933333 26.666667 64 40 26.666667 64 26.666667m0 85.333333c-46.933333 0-91.2-18.133333-124.266667-51.733333C354.666667 475.2 336 430.933333 336 384s18.133333-91.2 51.733333-124.266667c33.066667-33.066667 77.333333-51.733333 124.266667-51.733333s91.2 18.133333 124.266667 51.733333c33.066667 33.066667 51.733333 77.333333 51.733333 124.266667s-18.133333 91.2-51.733333 124.266667C603.2 541.866667 558.933333 560 512 560zM512 749.866667c10.666667 0 21.333333-0.533333 32-1.6l9.066667-48 8.533333-46.933334 44.8-17.066666c27.2-10.666667 53.333333-25.6 77.333333-44.8l37.333334-29.866667 45.333333 16 44.8 16c12.266667-17.6 22.933333-35.733333 31.466667-54.933333l-36.8-32-36.266667-31.466667 8-47.466667c2.666667-14.933333 3.733333-29.333333 3.733333-44.266666s-1.066667-29.333333-3.733333-44.266667l-8-47.466667 36.266667-31.466666 36.8-31.466667c-9.066667-19.2-19.733333-37.866667-32-55.466667l-44.8 16-45.866667 16.533334-37.333333-30.933334c-22.4-18.666667-48.533333-33.6-76.266667-44.266666l-44.8-17.066667-8.533333-46.933333-9.066667-48c-11.2-1.066667-21.866667-1.6-32-1.6-11.2 0-21.866667 0.533333-32 1.066666l-9.066667 48.533334-9.066666 47.466666-45.333334 16.533334c-26.666667 9.6-51.733333 24.533333-75.2 43.2l-37.333333 30.933333-45.333333-16-45.333334-16c-12.266667 17.6-22.933333 35.733333-31.466666 54.933333l37.866666 32 36.8 31.466667-8 47.466667c-2.666667 14.4-3.733333 29.333333-3.733333 43.733333s1.066667 29.333333 3.733333 43.2l8 48-36.8 31.466667-37.866666 32c9.066667 19.2 19.733333 37.333333 31.466666 54.933333l45.333334-16.533333 44.8-16 37.333333 29.866666c24 19.2 49.066667 33.6 76.8 44.266667l44.8 17.066667 8.533333 46.933333L480 746.666667c10.133333 2.666667 21.333333 3.2 32 3.2m0 85.333333c-27.2 0-53.866667-2.666667-80-7.466667l-3.2-1.066666c-13.333333-2.666667-23.466667-12.8-26.133333-26.133334l-16-85.866666c-36.266667-13.866667-69.333333-33.066667-99.733334-57.6l-82.133333 29.333333c-3.733333 1.066667-6.933333 1.6-10.666667 1.6-9.6 0-18.133333-3.733333-24.533333-11.2l-1.6-2.133333c-35.2-41.6-61.866667-88-80-138.666667l-1.066667-2.666667c-4.266667-12.8-1.066667-26.666667 9.6-35.2l66.666667-57.066666c-3.2-18.666667-4.8-38.4-4.8-57.6s1.6-38.4 4.8-57.6l-66.666667-57.066667c-10.133333-8.533333-13.866667-22.933333-9.6-35.2l1.066667-2.666667c18.133333-50.666667 45.333333-97.6 80-138.666666l1.6-2.133334c6.4-7.466667 14.933333-11.2 24.533333-11.2 3.733333 0 6.933333 0.533333 10.666667 1.6l82.133333 29.333334c29.866667-24.533333 63.466667-44.266667 99.733334-57.6l16-85.866667c2.666667-13.333333 12.8-23.466667 26.133333-26.133333l2.666667-0.533334c26.133333-4.8 52.8-6.933333 80-6.933333 26.666667 0 53.866667 2.666667 80 6.933333l2.666666 0.533334c13.333333 2.666667 23.466667 12.8 26.133334 26.133333l16 85.333333c36.266667 13.866667 69.866667 33.066667 100.266666 58.133334l81.6-29.333334c3.733333-1.066667 6.933333-1.6 10.666667-1.6 9.6 0 18.133333 3.733333 24.533333 11.2l1.6 2.133334c35.2 41.6 61.866667 88 80 138.666666l1.066667 2.666667c4.8 13.333333 1.066667 27.2-9.066667 35.733333l-65.6 56.533334c3.2 19.2 4.8 38.4 4.8 58.133333s-1.6 38.933333-4.8 58.133333l65.6 56.533334c10.133333 8.533333 13.866667 22.933333 9.6 35.2l-1.066666 2.666666c-18.133333 50.666667-45.333333 97.6-80 138.666667l-1.6 2.133333c-6.4 7.466667-14.933333 11.2-24.533334 11.2-3.733333 0-6.933333-0.533333-10.666666-1.6l-81.6-29.333333c-30.4 24.533333-64 44.266667-100.266667 58.133333l-16 85.333334c-2.666667 13.333333-12.8 23.466667-26.133333 26.133333l-2.666667 0.533333c-26.133333 4.8-52.8 7.466667-80 7.466667z"  horiz-adv-x="1024" />

    
    <glyph glyph-name="l-user" unicode="&#59174;" d="M209.066667-27.733333000000016c0 166.933333 136 302.4 302.933333 302.4s302.933333-136 302.933333-302.4v-0.533334H901.333333c0 159.466667-95.466667 296-232.533333 356.266667A260.853333 260.853333 0 0 1 773.333333 537.066667c0 144.533333-116.8 261.333333-261.333333 261.333333s-261.333333-116.8-261.333333-261.333333c0-85.333333 41.066667-161.6 104.533333-209.066667-137.066667-60.266667-232.533333-197.333333-232.533333-356.266667l86.4 0.533334zM336 537.6c0 97.066667 78.933333 176 176 176s176-78.933333 176-176-78.933333-176-176-176-176 78.933333-176 176z"  horiz-adv-x="1024" />

    
    <glyph glyph-name="l-delete" unicode="&#59175;" d="M394.133333 738.666667h245.333334M866.666667 656h-144.533334V747.733333c0 41.6-32.533333 74.133333-74.133333 74.133334H382.4c-41.6 0-74.133333-32.533333-74.133333-74.133334V656H163.733333c-23.466667 0-38.4-18.133333-38.4-38.933333v-38.4c0-5.866667 5.866667-9.066667 9.066667-9.066667H202.666667l29.333333-552.533333c3.2-38.4 35.733333-68.266667 74.133333-68.266667h416.533334c38.4 0 70.933333 29.333333 74.133333 68.266667l26.666667 552.533333h68.266666c5.866667 0 9.066667 5.866667 9.066667 9.066667v35.733333c-1.6 27.733333-10.133333 41.6-34.133333 41.6zM390.933333 738.666667h248.533334V656H390.933333V738.666667z m325.333334-703.466667H314.666667L288 573.333333h454.933333l-26.666666-538.133333z"  horiz-adv-x="1024" />

    
    <glyph glyph-name="l-bell" unicode="&#59177;" d="M825.6 128h-21.866667V475.2c0 146.666667-109.333333 268.8-250.133333 289.6V810.666667c0 23.466667-19.2 42.666667-42.666667 42.666666s-42.666667-19.2-42.666666-42.666666v-45.866667c-141.333333-20.8-250.133333-142.933333-250.133334-289.6V128h-21.866666c-23.466667 0-42.666667-19.2-42.666667-42.666667v-32c0-5.866667 4.8-10.666667 10.666667-10.666666h218.666666c0.533333-70.4 57.6-126.933333 128-126.933334s127.466667 56.533333 128 126.933334h218.666667c5.866667 0 10.666667 4.8 10.666667 10.666666v32c0 23.466667-19.2 42.666667-42.666667 42.666667z m-314.666667-148.266667c-34.666667 0-63.466667 28.266667-64 62.933334h128c-0.533333-34.666667-28.8-62.933333-64-62.933334z m208 148.266667H303.466667V475.2C303.466667 589.333333 396.8 682.666667 510.933333 682.666667c114.666667 0 207.466667-93.333333 207.466667-207.466667V128z"  horiz-adv-x="1024" />

    
    <glyph glyph-name="l-link" unicode="&#59178;" d="M580.266667 211.20000000000005c-5.333333 5.333333-8 5.333333-13.333334 0L440.533333 85.33333300000004c-59.2-59.2-158.4-67.2-225.6 0s-59.2 166.4 0 225.6l129.066667 129.066667c5.333333 5.333333 5.333333 8 0 13.333333L298.666667 498.666667c-5.333333 5.333333-8 5.333333-13.333334 0L155.733333 369.6c-93.866667-93.866667-93.866667-244.266667 0-338.133333s244.266667-93.866667 338.133334 0l129.066666 129.066666c5.333333 5.333333 5.333333 8 0 13.333334l-42.666666 37.333333z m287.466666 525.866667a238.208 238.208 0 0 1-338.133333 0L400 608c-5.333333-5.333333-5.333333-8 0-13.333333l45.866667-45.333334c5.333333-5.333333 8-5.333333 13.333333 0l126.4 129.066667c59.2 59.2 158.4 67.2 225.6 0s59.2-166.4 0-225.6l-126.4-126.4c-5.333333-5.333333-5.333333-8 0-13.333333l45.866667-45.866667c5.333333-5.333333 8-5.333333 13.333333 0l129.066667 129.066667c88.533333 97.066667 88.533333 246.933333-5.333334 340.8zM620.266667 536c-5.333333 5.333333-8 5.333333-13.333334 0L357.333333 286.4c-5.333333-5.333333-5.333333-8 0-13.333333l45.866667-45.866667c5.333333-5.333333 8-5.333333 13.333333 0l249.6 249.6c5.333333 5.333333 5.333333 8 0 13.333333l-45.866666 45.866667z"  horiz-adv-x="1024" />

    
    <glyph glyph-name="l-location" unicode="&#59196;" d="M509.333333 564.8c58.133333 0 101.333333-43.733333 101.333334-101.333333s-43.733333-101.333333-101.333334-101.333334-101.333333 43.733333-101.333333 101.333334 43.2 101.333333 101.333333 101.333333m0 85.333333c-104.533333 0-186.666667-82.133333-186.666666-186.666666s82.133333-186.666667 186.666666-186.666667 186.666667 82.133333 186.666667 186.666667-82.133333 186.666667-186.666667 186.666666zM509.333333 771.2c40 0 80.533333-8 120-24.533333 34.133333-13.866667 65.6-34.666667 98.666667-65.6 28.8-26.666667 49.6-56.533333 64-91.733334l0.533333-1.6 1.066667-1.6c17.066667-36.8 24.533333-80.533333 29.333333-118.933333-1.066667-56.533333-16.533333-117.866667-45.333333-177.6-21.866667-43.733333-57.066667-92.8-105.066667-146.666667-63.466667-67.2-128.533333-112.533333-160-132.8-31.466667 19.733333-97.066667 65.6-160.533333 133.333334-43.733333 45.866667-78.4 94.933333-104 145.066666-30.933333 66.666667-45.866667 125.333333-45.866667 183.466667 0 37.333333 8.533333 77.866667 24 116.8 13.866667 31.466667 37.333333 65.066667 67.2 94.933333 25.6 26.133333 58.666667 48 96 62.933334l1.6 0.533333 1.6 1.066667c33.6 15.466667 72 22.933333 116.8 22.933333m0 85.333333c-53.333333 0-104.533333-8.533333-152.533333-30.933333-48-19.733333-90.666667-48-124.266667-82.133333S167.466667 667.2 147.733333 621.866667c-19.733333-48-30.933333-99.2-30.933333-149.866667 0-76.266667 19.733333-147.2 53.866667-220.266667 28.266667-56.533333 67.733333-113.066667 118.933333-166.933333 84.8-90.666667 175.466667-147.2 200.533333-161.066667 5.866667-5.866667 17.066667-5.866667 22.4-5.866666 8.533333 0 17.066667 2.666667 22.4 5.866666 25.6 14.4 115.733333 70.933333 200.533334 161.066667 48 53.866667 90.666667 110.4 118.933333 166.933333 34.133333 70.933333 53.866667 147.2 53.866667 220.266667-6.4 50.666667-14.933333 101.866667-37.333334 149.866667-19.733333 48-48 87.466667-84.8 121.6s-76.266667 62.4-124.266666 82.133333c-48 19.733333-99.2 30.933333-152.533334 30.933333z"  horiz-adv-x="1024" />

    
    <glyph glyph-name="l-summary" unicode="&#59197;" d="M882.590476 791.161905H141.409524c-19.504762 0-36.571429-17.066667-36.571429-36.571429v-741.180952c0-19.504762 17.066667-36.571429 36.571429-36.571429h741.180952c19.504762 0 36.571429 17.066667 36.571429 36.571429V754.590476c0 19.504762-17.066667 36.571429-36.571429 36.571429z m-43.885714-733.866667H185.295238V710.704762h653.409524v-653.409524zM373.028571 510.780952h-92.647619c-4.87619 0-9.752381 4.87619-9.752381 9.752381v92.647619c0 4.87619 4.87619 9.752381 9.752381 9.752381h92.647619c4.87619 0 9.752381-4.87619 9.752381-9.752381v-92.647619c0-7.314286-4.87619-9.752381-9.752381-9.752381zM558.32381 510.780952h-92.64762c-4.87619 0-9.752381 4.87619-9.75238 9.752381v92.647619c0 4.87619 4.87619 9.752381 9.75238 9.752381h92.64762c4.87619 0 9.752381-4.87619 9.75238-9.752381v-92.647619c0-7.314286-4.87619-9.752381-9.75238-9.752381zM743.619048 510.780952h-92.647619c-4.87619 0-9.752381 4.87619-9.752381 9.752381v92.647619c0 4.87619 4.87619 9.752381 9.752381 9.752381h92.647619c4.87619 0 9.752381-4.87619 9.752381-9.752381v-92.647619c-2.438095-7.314286-4.87619-9.752381-9.752381-9.752381zM373.028571 325.48571400000003h-92.647619c-4.87619 0-9.752381 4.87619-9.752381 9.752381v92.647619c0 4.87619 4.87619 9.752381 9.752381 9.752381h92.647619c4.87619 0 9.752381-4.87619 9.752381-9.752381V335.23809500000004c0-4.87619-4.87619-9.752381-9.752381-9.752381zM558.32381 325.48571400000003h-92.64762c-4.87619 0-9.752381 4.87619-9.75238 9.752381v92.647619c0 4.87619 4.87619 9.752381 9.75238 9.752381h92.64762c4.87619 0 9.752381-4.87619 9.75238-9.752381V335.23809500000004c0-4.87619-4.87619-9.752381-9.75238-9.752381zM743.619048 325.48571400000003h-92.647619c-4.87619 0-9.752381 4.87619-9.752381 9.752381v92.647619c0 4.87619 4.87619 9.752381 9.752381 9.752381h92.647619c4.87619 0 9.752381-4.87619 9.752381-9.752381V335.23809500000004c-2.438095-4.87619-4.87619-9.752381-9.752381-9.752381zM373.028571 140.190476h-92.647619c-4.87619 0-9.752381 4.87619-9.752381 9.752381v92.647619c0 4.87619 4.87619 9.752381 9.752381 9.752381h92.647619c4.87619 0 9.752381-4.87619 9.752381-9.752381v-92.647619c0-4.87619-4.87619-9.752381-9.752381-9.752381zM558.32381 140.190476h-92.64762c-4.87619 0-9.752381 4.87619-9.75238 9.752381v92.647619c0 4.87619 4.87619 9.752381 9.75238 9.752381h92.64762c4.87619 0 9.752381-4.87619 9.75238-9.752381v-92.647619c0-4.87619-4.87619-9.752381-9.75238-9.752381zM743.619048 140.190476h-92.647619c-4.87619 0-9.752381 4.87619-9.752381 9.752381v92.647619c0 4.87619 4.87619 9.752381 9.752381 9.752381h92.647619c4.87619 0 9.752381-4.87619 9.752381-9.752381v-92.647619c-2.438095-4.87619-4.87619-9.752381-9.752381-9.752381z"  horiz-adv-x="1024" />

    
    <glyph glyph-name="l-list" unicode="&#59198;" d="M882.590476 791.161905H141.409524c-19.504762 0-36.571429-17.066667-36.571429-36.571429v-741.180952c0-19.504762 17.066667-36.571429 36.571429-36.571429h741.180952c19.504762 0 36.571429 17.066667 36.571429 36.571429V754.590476c0 19.504762-17.066667 36.571429-36.571429 36.571429z m-43.885714-733.866667H185.295238V710.704762h653.409524v-653.409524zM280.380952 162.133333h463.238096c4.87619 0 9.752381 4.87619 9.752381 9.752381v56.076191c0 4.87619-4.87619 9.752381-9.752381 9.752381h-463.238096c-4.87619 0-9.752381-4.87619-9.752381-9.752381v-56.076191c2.438095-4.87619 4.87619-9.752381 9.752381-9.752381zM280.380952 347.42857100000003h463.238096c4.87619 0 9.752381 4.87619 9.752381 9.752381v56.076191c0 4.87619-4.87619 9.752381-9.752381 9.752381h-463.238096c-4.87619 0-9.752381-4.87619-9.752381-9.752381v-56.076191c2.438095-4.87619 4.87619-9.752381 9.752381-9.752381zM280.380952 532.72381h463.238096c4.87619 0 9.752381 4.87619 9.752381 9.75238v56.076191c0 4.87619-4.87619 9.752381-9.752381 9.752381h-463.238096c-4.87619 0-9.752381-4.87619-9.752381-9.752381v-56.076191c2.438095-7.314286 4.87619-9.752381 9.752381-9.75238z"  horiz-adv-x="1024" />

    
    <glyph glyph-name="l-add-file" unicode="&#59199;" d="M844.88126933 599.85269867l-208.0507936 208.0507936c-7.80190507 7.80190507-13.0031744 7.80190507-20.8050784 7.80190506H199.92380907c-18.2044448 0-31.2076192-13.0031744-31.20761814-31.2076192v-806.1968256c0-18.2044448 13.0031744-31.2076192 31.20761814-31.2076192h621.55174613c18.2044448 0 31.2076192 13.0031744 31.2076192 31.2076192v598.146032c0 7.80190507-2.60063467 18.2044448-7.80190507 23.40571414z m-65.015872-36.4088896h-182.0444448v182.0444448l182.0444448-182.0444448z m2.60063467-546.13333334H238.93333333V748.08888853h293.87174614v-208.0507936c0-20.80507947 18.2044448-41.61015893 41.61015893-41.61015893h208.0507936v-481.11746027zM543.2076192 423.00952427c0 5.20126933-5.20126933 7.80190507-7.80190507 7.801904h-46.81142826c-5.20126933 0-7.80190507-5.20126933-7.80190507-7.801904v-104.02539734h-104.02539627c-5.20126933 0-7.80190507-5.20126933-7.80190506-7.80190506v-46.81142827c0-5.20126933 5.20126933-7.80190507 7.80190506-7.80190507h104.02539627v-104.02539626c0-5.20126933 5.20126933-7.80190507 7.80190507-7.80190507h46.81142826c5.20126933 0 7.80190507 5.20126933 7.80190507 7.80190507v104.02539626h104.02539627c5.20126933 0 7.80190507 5.20126933 7.80190506 7.80190507v46.81142827c0 5.20126933-5.20126933 7.80190507-7.80190506 7.80190506h-104.02539627v104.02539734z"  horiz-adv-x="1024" />

    
    <glyph glyph-name="l-word" unicode="&#59200;" d="M844.88126933 597.252064l-208.0507936 208.0507936c-7.80190507 7.80190507-13.0031744 7.80190507-20.8050784 7.801904H202.5244448c-18.2044448 0-31.2076192-13.0031744-31.2076192-31.2076192v-806.19682453c0-18.2044448 13.0031744-31.2076192 31.2076192-31.2076192H824.07619093c18.2044448 0 31.2076192 13.0031744 31.20761814 31.2076192v598.14603093c-2.60063467 10.40253973-5.20126933 18.2044448-10.40253974 23.4057152z m-62.41523733-36.4088896h-182.0444448v182.0444448l182.0444448-182.0444448z m0-546.13333333H241.533968V745.48825387h293.87174613v-208.0507936c0-20.80507947 18.2044448-41.61015893 41.61015894-41.61015894h208.0507936v-481.11746026zM527.60380907 420.40888853h-31.20761814c-5.20126933 0-10.40253973-5.20126933-10.40253973-7.801904l-46.81142933-192.44698453-46.81142827 192.44698453c-2.60063467 5.20126933-7.80190507 7.80190507-10.40253973 7.801904H345.55936533c-7.80190507-2.60063467-10.40253973-7.80190507-7.80190506-15.60380906L407.97460267 136.93968213000005c2.60063467-5.20126933 7.80190507-7.80190507 10.40253973-7.801904h31.2076192c5.20126933 0 10.40253973 5.20126933 10.40253973 7.801904l52.01269867 192.44698454 52.01269867-192.44698454c2.60063467-5.20126933 7.80190507-7.80190507 10.40253973-7.801904h31.2076192c5.20126933 0 10.40253973 5.20126933 10.40253973 7.801904l72.81777707 267.86539734v2.60063466c0 7.80190507-5.20126933 10.40253973-10.40253973 10.40253974H642.03174613c-5.20126933 0-10.40253973-5.20126933-10.40253973-7.80190507l-44.2107936-192.44698347-46.81142827 192.44698347c-2.60063467 5.20126933-7.80190507 10.40253973-13.00317546 10.40253973z"  horiz-adv-x="1024" />

    
    <glyph glyph-name="l-addfolder" unicode="&#59201;" d="M482.742857 452.266667v-85.333334h-85.333333c-4.87619 0-7.314286-4.87619-7.314286-7.314285v-41.447619c0-4.87619 4.87619-7.314286 7.314286-7.314286h85.333333v-85.333333c0-4.87619 4.87619-7.314286 7.314286-7.314286h41.447619c4.87619 0 7.314286 4.87619 7.314286 7.314286V310.85714299999995h85.333333c4.87619 0 7.314286 4.87619 7.314286 7.314286V359.619048c0 4.87619-4.87619 7.314286-7.314286 7.314285h-85.333333v85.333334c0 4.87619-4.87619 7.314286-7.314286 7.314285h-41.447619c-2.438095 2.438095-7.314286-2.438095-7.314286-7.314285zM885.028571 600.990476h-365.714285l-119.466667 114.590476c-2.438095 2.438095-4.87619 2.438095-7.314286 2.438096H138.971429c-17.066667 0-31.695238-14.628571-31.695239-31.695238v-602.209524c0-19.504762 14.628571-31.695238 31.695239-31.695238h748.495238c19.504762 0 31.695238 14.628571 31.695238 31.695238V569.2952379999999c0 17.066667-14.628571 31.695238-34.133334 31.695238z m-39.009523-477.866666H177.980952V644.87619h190.171429l121.904762-114.590476h353.523809v-407.161904z"  horiz-adv-x="1024" />

    
    <glyph glyph-name="l-excel" unicode="&#59202;" d="M844.88126933 599.85269867l-208.0507936 208.0507936c-7.80190507 7.80190507-13.0031744 7.80190507-20.8050784 7.80190506H202.5244448c-18.2044448 0-31.2076192-13.0031744-31.2076192-31.2076192v-806.1968256c0-18.2044448 13.0031744-31.2076192 31.2076192-31.2076192H824.07619093c18.2044448 0 31.2076192 13.0031744 31.20761814 31.2076192v598.146032c-2.60063467 7.80190507-5.20126933 18.2044448-10.40253974 23.40571414z m-62.41523733-36.4088896h-182.0444448v182.0444448l182.0444448-182.0444448z m0-546.13333334H241.533968V748.08888853h293.87174613v-208.0507936c0-20.80507947 18.2044448-41.61015893 41.61015894-41.61015893h208.0507936v-481.11746027zM514.60063467 318.98412693l-59.81460267 98.82412694c-2.60063467 5.20126933-7.80190507 7.80190507-10.40253973 7.80190506H407.97460267c-2.60063467 0-5.20126933 0-7.801904-2.60063466-7.80190507-5.20126933-7.80190507-10.40253973-5.2012704-15.60381014l80.6196832-124.83047573-80.6196832-127.43111147c-2.60063467-2.60063467-2.60063467-5.20126933-2.60063467-7.80190506 0-7.80190507 5.20126933-10.40253973 10.40253973-10.40253974h33.80825387c5.20126933 0 7.80190507 2.60063467 10.40253973 7.80190507l59.81460374 98.82412693 59.81460266-98.82412693c2.60063467-5.20126933 7.80190507-7.80190507 10.40253974-7.80190507H616.02539733c2.60063467 0 5.20126933 0 7.801904 2.60063574 7.80190507 5.20126933 7.80190507 10.40253973 5.2012704 15.60380906l-83.22031786 122.22984107 83.22031786 127.43111147c2.60063467 2.60063467 2.60063467 5.20126933 2.60063467 7.80190506 0 7.80190507-5.20126933 10.40253973-10.40253973 10.40253974h-33.80825387c-5.20126933 0-7.80190507-2.60063467-10.40253973-7.80190507l-62.4152384-96.22349227z"  horiz-adv-x="1024" />

    
    <glyph glyph-name="l-calendar" unicode="&#59203;" d="M310.85714281 786.28571437h52.57142907c4.57142813 0 9.14285719-4.57142813 9.14285625-9.14285718v-157.71428531c0-4.57142813-4.57142813-9.14285719-9.14285625-9.14285719h-52.57142907c-4.57142813 0-9.14285719 4.57142813-9.14285718 9.14285719V777.14285719c0 4.57142813 4.57142813 9.14285719 9.14285718 9.14285719zM626.28571437 786.28571437h52.57142813c4.57142813 0 9.14285719-4.57142813 9.14285719-9.14285718v-157.71428531c0-4.57142813-4.57142813-9.14285719-9.14285719-9.14285719H626.28571437c-4.57142813 0-9.14285719 4.57142813-9.14285718 9.14285719V777.14285719c0 4.57142813 4.57142813 9.14285719 9.14285719 9.14285719zM267.42857187 498.28571437v52.57142813c0 4.57142813 4.57142813 9.14285719 9.14285625 9.14285719h470.85714375c4.57142813 0 9.14285719-4.57142813 9.14285626-9.14285719V498.28571437c0-4.57142813-4.57142813-9.14285719-9.14285625-9.14285718H276.57142813c-4.57142813 0-9.14285719 4.57142813-9.14285625 9.14285719zM432.00000031 384c18.28571437 2.28571406 57.14285719 13.71428531 61.71428531 61.71428531 0 4.57142813 4.57142813 9.14285719 9.14285719 9.14285719h52.57142906c4.57142813 0 9.14285719-4.57142813 9.14285625-9.14285719v-331.42857094c0-4.57142813-4.57142813-9.14285719-9.14285625-9.14285718h-52.57142906c-4.57142813 0-9.14285719 4.57142813-9.14285719 9.14285718v192c0 4.57142813-4.57142813 9.14285719-9.14285718 9.14285719h-52.57142813c-4.57142813 0-9.14285719 4.57142813-9.14285718 9.14285719v52.57142812c0 4.57142813 4.57142813 6.85714313 9.14285718 6.85714313zM582.8571425 672V724.57142813c0 4.57142813-4.57142813 9.14285719-9.14285719 9.14285718h-157.71428531c-4.57142813 0-9.14285719-4.57142813-9.14285719-9.14285719v-52.57142812c0-4.57142813 4.57142813-9.14285719 9.14285719-9.14285719h157.71428531c4.57142813 2.28571406 9.14285719 4.57142813 9.14285719 9.14285719zM896 733.71428531h-164.57142844c-4.57142813 0-9.14285719-4.57142813-9.14285718-9.14285718v-52.57142813c0-4.57142813 4.57142813-9.14285719 9.14285718-9.14285719h130.28571375v-594.28571437H162.28571469v594.28571437h96c4.57142813 0 9.14285719 4.57142813 9.14285718 9.14285719V724.57142813c0 4.57142813-4.57142813 9.14285719-9.14285718 9.14285718H128c-20.57142844 0-34.28571469-16.00000031-34.28571469-34.28571375v-662.85714281c0-20.57142844 16.00000031-34.28571469 34.28571469-34.28571469h768c20.57142844 0 34.28571469 16.00000031 34.28571469 34.28571469v662.85714281c0 18.28571437-13.71428531 34.28571469-34.28571469 34.28571375z"  horiz-adv-x="1024" />

    
    <glyph glyph-name="l-edit" unicode="&#59204;" d="M265.752381 152.38095199999998h4.87619l160.914286 29.257143c2.438095 0 4.87619 2.438095 4.876191 2.438095l409.6 409.6c4.87619 4.87619 4.87619 9.752381 0 14.628572l-160.914286 160.914286H682.666667c-2.438095 0-4.87619 0-7.314286-2.438096L265.752381 359.619048c-2.438095-2.438095-2.438095-4.87619-2.438095-4.876191l-29.257143-160.914286c-2.438095-12.190476 2.438095-21.942857 9.752381-29.257142 4.87619-7.314286 12.190476-12.190476 21.942857-12.190477z m65.828571 168.228572L682.666667 669.257143l70.704762-70.704762-351.085715-348.647619-85.333333-14.628572 14.628571 85.333334z m536.380953-248.685714H156.038095c-17.066667 0-31.695238-14.628571-31.695238-31.695239v-34.133333c0-4.87619 4.87619-7.314286 7.314286-7.314286h755.809524c4.87619 0 7.314286 4.87619 7.314285 7.314286v34.133333c2.438095 17.066667-9.752381 31.695238-26.819047 31.695239z"  horiz-adv-x="1024" />

    
    <glyph glyph-name="l-import" unicode="&#59205;" d="M332.266667 374.4l153.6-120c6.933333-4.8 14.4 0 14.4 7.466667v80.533333h368c2.666667 0 7.466667 2.666667 7.466666 7.466667V415.466667c0 2.666667-2.666667 7.466667-7.466666 7.466666h-368V503.466667c0 7.466667-9.6 12.266667-14.4 7.466666L332.266667 388.8c-4.8-4.8-4.8-9.6 0-14.4zM392.533333-13.333333000000039v65.6c0 4.8-4.8 7.466667-7.466666 7.466666H219.2V708.266667h165.866667c4.8 0 7.466667 4.8 7.466666 7.466666V784c0 4.8-4.8 7.466667-7.466666 7.466667H170.666667c-19.733333 0-34.133333-17.066667-34.133334-34.133334v-743.466666c0-19.733333 17.066667-34.133333 34.133334-34.133334h214.4c4.8-0.533333 7.466667 2.133333 7.466666 6.933334z"  horiz-adv-x="1024" />

    
    <glyph glyph-name="l-export" unicode="&#59206;" d="M893.333333 374.4c4.8 4.8 4.8 9.6 0 14.4l-153.6 122.133333c-4.8 4.8-14.4 0-14.4-7.466666v-80.533334H357.333333c-4.8 0-7.466667-4.8-7.466666-7.466666v-65.6c0-4.8 4.8-7.466667 7.466666-7.466667h368v-80.533333c0-7.466667 7.466667-12.266667 14.4-7.466667l153.6 120zM392.533333-13.333333000000039v65.6c0 4.8-4.8 7.466667-7.466666 7.466666H219.2V708.266667h165.866667c4.8 0 7.466667 4.8 7.466666 7.466666V784c0 4.8-4.8 7.466667-7.466666 7.466667H170.666667c-19.733333 0-34.133333-17.066667-34.133334-34.133334v-743.466666c0-19.733333 17.066667-34.133333 34.133334-34.133334h214.4c4.8-0.533333 7.466667 2.133333 7.466666 6.933334z"  horiz-adv-x="1024" />

    
    <glyph glyph-name="l-file" unicode="&#59207;" d="M844.88126933 599.85269867l-208.0507936 208.0507936c-5.20126933 5.20126933-13.0031744 10.40253973-20.8050784 10.40253973H199.92380907c-18.2044448 0-31.2076192-13.0031744-31.20761814-31.2076192v-808.79746027c0-18.2044448 13.0031744-31.2076192 31.20761814-31.2076192h624.15238186c18.2044448 0 31.2076192 13.0031744 31.20761814 31.2076192v598.146032c0 10.40253973-5.20126933 18.2044448-10.40253974 23.40571414z m-62.41523733-36.4088896h-182.0444448V748.08888853l182.0444448-184.64507946z m2.60063467-546.13333334h-546.13333334V748.08888853h293.87174614v-208.0507936c0-23.40571413 18.2044448-41.61015893 41.61015893-41.61015893h210.65142827v-481.11746027zM504.19809493 279.97460266999997h-179.44380906c-5.20126933 0-7.80190507-2.60063467-7.80190507-7.801904v-46.81142934c0-5.20126933 2.60063467-7.80190507 7.80190507-7.801904h179.44380906c5.20126933 0 7.80190507 2.60063467 7.80190507 7.801904v46.81142934c0 5.20126933-2.60063467 7.80190507-7.80190507 7.801904z m-187.24571413 124.8304768V357.99365120000004c0-5.20126933 2.60063467-7.80190507 7.80190507-7.80190507h371.8907936c5.20126933 0 7.80190507 2.60063467 7.80190506 7.80190507v46.81142827c0 5.20126933-2.60063467 7.80190507-7.80190506 7.80190506H324.75428587c-2.60063467 0-7.80190507-2.60063467-7.80190507-7.80190506z"  horiz-adv-x="1024" />

    
    <glyph glyph-name="l-camera" unicode="&#59208;" d="M848.457143 635.12381h-129.219048l-31.695238 85.333333c-4.87619 14.628571-17.066667 21.942857-29.257143 21.942857H365.714286c-12.190476 0-24.380952-7.314286-29.257143-19.504762l-31.695238-85.333333H177.980952c-41.447619 0-75.580952-34.133333-75.580952-75.580953v-433.980952c0-41.447619 34.133333-75.580952 75.580952-75.580952h670.476191c41.447619 0 75.580952 34.133333 75.580952 75.580952V559.542857c0 41.447619-34.133333 75.580952-75.580952 75.580953z m7.314286-509.561905c0-4.87619-2.438095-7.314286-7.314286-7.314286H177.980952c-4.87619 0-7.314286 2.438095-7.314285 7.314286V559.542857c0 4.87619 2.438095 7.314286 7.314285 7.314286h177.980953l17.066666 46.323809 21.942858 60.952381H633.904762l21.942857-60.952381 17.066667-46.323809h177.980952c4.87619 0 7.314286-2.438095 7.314286-7.314286v-433.980952zM512 505.904762c-85.333333 0-153.6-68.266667-153.6-153.6s68.266667-153.6 153.6-153.6 153.6 68.266667 153.6 153.6S597.333333 505.904762 512 505.904762z m0-243.809524c-51.2 0-92.647619 41.447619-92.647619 92.647619s41.447619 92.647619 92.647619 92.647619 92.647619-41.447619 92.647619-92.647619S563.2 262.095238 512 262.095238z"  horiz-adv-x="1024" />

    
    <glyph glyph-name="l-photo" unicode="&#59209;" d="M836.266667 620.495238v-477.866667H185.295238V620.495238h650.971429m51.2 82.895238H136.533333c-17.066667 0-31.695238-14.628571-31.695238-31.695238V91.42857100000003c0-17.066667 14.628571-31.695238 31.695238-31.695238h750.933334c17.066667 0 31.695238 14.628571 31.695238 31.695238V671.695238c-2.438095 17.066667-14.628571 31.695238-31.695238 31.695238zM355.961905 518.095238m-58.514286 0a58.514286 58.514286 0 1 1 117.028571 0 58.514286 58.514286 0 1 1-117.028571 0ZM807.009524 196.26666699999998s-2.438095-2.438095-4.876191-2.438096H219.428571c-4.87619 0-7.314286 2.438095-7.314285 7.314286 0 2.438095 0 2.438095 2.438095 4.876191l143.847619 168.228571c2.438095 2.438095 7.314286 2.438095 9.752381 0l90.209524-107.27619 143.847619 170.666666c2.438095 2.438095 7.314286 2.438095 9.752381 0l192.609524-231.619047c4.87619-2.438095 4.87619-7.314286 2.438095-9.752381z"  horiz-adv-x="1024" />

    
    <glyph glyph-name="f-photo" unicode="&#59210;" d="M887.466667 705.828571H136.533333c-17.066667 0-31.695238-12.190476-31.695238-29.257142v-580.266667c0-17.066667 14.628571-31.695238 31.695238-31.695238h753.371429c17.066667 0 31.695238 14.628571 31.695238 31.695238V676.571429c-2.438095 17.066667-17.066667 29.257143-34.133333 29.257142zM355.961905 579.0476189999999c31.695238 0 58.514286-26.819048 58.514285-58.514286s-26.819048-58.514286-58.514285-58.514285-58.514286 26.819048-58.514286 58.514285 26.819048 58.514286 58.514286 58.514286z m451.047619-380.342857s-2.438095-2.438095-4.876191-2.438095H221.866667c-4.87619 0-7.314286 2.438095-7.314286 7.314285 0 2.438095 0 2.438095 2.438095 4.876191l143.847619 168.228571c2.438095 2.438095 7.314286 2.438095 9.752381 0l90.209524-107.27619 143.847619 170.666666c2.438095 2.438095 7.314286 2.438095 9.752381 0l192.609524-231.619047c2.438095-2.438095 2.438095-7.314286 0-9.752381z"  horiz-adv-x="1024" />

    
    <glyph glyph-name="f-ie" unicode="&#59211;" d="M836.266667 522.971429c14.628571 34.133333 31.695238 85.333333 31.695238 124.342857 0 104.838095-114.590476 141.409524-299.885715 56.07619-153.6 9.752381-302.32381-107.27619-338.895238-268.190476 43.885714 48.761905 112.152381 117.028571 173.104762 143.847619-78.019048-68.266667-143.847619-156.038095-195.047619-246.247619C180.419048 279.16190500000005 146.285714 191.39047600000004 146.285714 125.56190500000002c0-141.409524 131.657143-124.342857 258.438096-60.952381 43.885714-21.942857 95.085714-21.942857 146.285714-21.942857 138.971429 0 263.314286 78.019048 309.638095 209.67619h-173.104762c-75.580952-126.780952-280.380952-75.580952-280.380952 68.266667H877.714286c7.314286 60.952381-4.87619 136.533333-41.447619 202.361905z m-597.333334-268.190477c24.380952-73.142857 75.580952-136.533333 143.847619-175.542857-126.780952-70.704762-248.685714-41.447619-143.847619 175.542857z m165.790477 156.038096c2.438095 78.019048 70.704762 136.533333 148.723809 136.533333 75.580952 0 146.285714-56.07619 148.72381-136.533333H404.72381z m263.314285 268.190476c31.695238 14.628571 68.266667 31.695238 102.4 31.695238 43.885714 0 78.019048-31.695238 78.019048-75.580952 0-29.257143-9.752381-70.704762-21.942857-97.52381-36.571429 58.514286-92.647619 114.590476-158.476191 141.409524z"  horiz-adv-x="1024" />

    
    <glyph glyph-name="f-car" unicode="&#59212;" d="M921.6 474.209524l-21.942857 36.571428c-2.438095 2.438095-7.314286 4.87619-9.752381 2.438096l-46.32381-26.819048-70.704762 197.485714c-7.314286 24.380952-29.257143 41.447619-56.07619 41.447619H321.828571c-31.695238 0-58.514286-19.504762-68.266666-51.2l-68.266667-187.733333-46.323809 26.819048c-2.438095 2.438095-7.314286 0-9.752381-2.438096l-21.942858-36.571428c-2.438095-2.438095 0-7.314286 2.438096-9.752381L163.352381 432.761905l-12.190476-36.571429c0-2.438095-2.438095-4.87619-2.438095-9.752381v-316.952381c0-14.628571 9.752381-26.819048 24.380952-26.819047h60.952381c12.190476 0 21.942857 7.314286 24.380952 19.504762l7.314286 34.133333h497.371429l7.314285-34.133333c2.438095-12.190476 12.190476-19.504762 24.380953-19.504762h60.952381c12.190476 0 24.380952 12.190476 24.380952 26.819047v316.952381c0 2.438095 0 7.314286-2.438095 9.752381l-14.628572 36.571429 56.076191 31.695238c2.438095 2.438095 4.87619 7.314286 2.438095 9.752381z m-631.466667-190.171429c-21.942857 0-39.009524 17.066667-39.009523 39.009524s17.066667 39.009524 39.009523 39.009524c21.942857 0 39.009524-17.066667 39.009524-39.009524s-17.066667-39.009524-39.009524-39.009524z m351.085715-68.266666c0-4.87619-2.438095-7.314286-7.314286-7.314286h-241.371429c-4.87619 0-7.314286 2.438095-7.314285 7.314286v75.580952c0 4.87619 2.438095 7.314286 7.314285 7.314286h36.571429c4.87619 0 7.314286-2.438095 7.314286-7.314286v-31.695238h153.6v31.695238c0 4.87619 2.438095 7.314286 7.314285 7.314286H633.904762c4.87619 0 7.314286-2.438095 7.314286-7.314286v-75.580952z m97.523809 68.266666c-21.942857 0-39.009524 17.066667-39.009524 39.009524 0 21.942857 17.066667 39.009524 39.009524 39.009524 21.942857 0 39.009524-17.066667 39.009524-39.009524-2.438095-19.504762-19.504762-39.009524-39.009524-39.009524zM280.380952 481.52381l58.514286 158.47619c0 2.438095 2.438095 4.87619 4.876191 4.87619h341.333333l60.952381-165.790476H280.380952z"  horiz-adv-x="1024" />

    
    <glyph glyph-name="f-maintain" unicode="&#59213;" d="M863.085714 649.752381l-182.857143-182.857143-85.333333 85.333333 182.857143 182.857143c-95.085714 58.514286-219.428571 43.885714-297.447619-36.571428-63.390476-63.390476-85.333333-153.6-63.390476-236.495238l2.438095-7.314286L131.657143 169.44761900000003c-7.314286-7.314286-7.314286-17.066667 0-21.942857l141.409524-141.409524c7.314286-7.314286 17.066667-7.314286 21.942857 0l285.257143 285.257143 7.314285-2.438095c85.333333-21.942857 175.542857 0 236.495238 63.390476 80.457143 78.019048 95.085714 199.92381 39.009524 297.447619z"  horiz-adv-x="1024" />

    
    <glyph glyph-name="f-control" unicode="&#59214;" d="M865.52381 766.7809520000001H160.914286c-17.066667 0-31.695238-14.628571-31.695238-31.695238v-704.609524c0-17.066667 14.628571-31.695238 31.695238-31.695238h704.609524c17.066667 0 31.695238 14.628571 31.695238 31.695238V735.085714c0 17.066667-14.628571 31.695238-31.695238 31.695238zM407.161905 208.45714299999997v-78.019048c0-4.87619-4.87619-7.314286-7.314286-7.314285h-48.761905c-4.87619 0-7.314286 4.87619-7.314285 7.314285v78.019048c-43.885714 14.628571-73.142857 53.638095-73.142858 102.4 0 46.32381 31.695238 87.771429 73.142858 102.4v226.742857c0 4.87619 4.87619 7.314286 7.314285 7.314286h48.761905c4.87619 0 7.314286-4.87619 7.314286-7.314286v-226.742857c43.885714-14.628571 73.142857-53.638095 73.142857-102.4 2.438095-48.761905-29.257143-87.771429-73.142857-102.4z m287.695238 146.285714v-226.742857c0-4.87619-4.87619-7.314286-7.314286-7.314286h-48.761905c-4.87619 0-7.314286 4.87619-7.314285 7.314286v226.742857c-43.885714 14.628571-73.142857 53.638095-73.142857 102.4 0 46.32381 31.695238 87.771429 73.142857 102.4v78.019048c0 4.87619 4.87619 7.314286 7.314285 7.314285h48.761905c4.87619 0 7.314286-4.87619 7.314286-7.314285v-78.019048c43.885714-14.628571 73.142857-53.638095 73.142857-102.4s-31.695238-87.771429-73.142857-102.4z"  horiz-adv-x="1024" />

    
    <glyph glyph-name="f-monitor" unicode="&#59215;" d="M426.666667 386.438095c0-46.32381 36.571429-82.895238 82.895238-82.895238s82.895238 36.571429 82.895238 82.895238-36.571429 82.895238-82.895238 82.895238c-46.32381-2.438095-82.895238-39.009524-82.895238-82.895238zM914.285714 408.380952C826.514286 593.67619 692.419048 688.7619050000001 512 688.7619050000001 334.019048 688.7619050000001 199.92381 596.114286 112.152381 408.380952c-7.314286-14.628571-7.314286-31.695238 0-48.761904 87.771429-185.295238 221.866667-280.380952 402.285714-280.380953S826.514286 171.885714 916.72381 359.619048c4.87619 17.066667 4.87619 34.133333-2.438096 48.761904z m-404.723809-187.733333a163.352381 163.352381 0 1 0 0 326.704762 163.352381 163.352381 0 0 0 0-326.704762z"  horiz-adv-x="1024" />

    
    <glyph glyph-name="f-Earlywarning" unicode="&#59216;" d="M480.304762 803.352381h60.952381c4.87619 0 9.752381-4.87619 9.752381-9.752381v-104.838095c0-4.87619-4.87619-9.752381-9.752381-9.752381h-60.952381c-4.87619 0-9.752381 4.87619-9.752381 9.752381V796.038095c0 4.87619 4.87619 7.314286 9.752381 7.314286zM173.104762 669.257143c2.438095 2.438095 9.752381 2.438095 12.190476 0l75.580952-73.142857c2.438095-2.438095 2.438095-9.752381 0-12.190476l-43.885714-43.885715c-2.438095-2.438095-9.752381-2.438095-12.190476 0l-75.580952 75.580953c-2.438095 2.438095-2.438095 9.752381 0 12.190476l43.885714 41.447619zM846.019048 669.257143l43.885714-43.885714c2.438095-2.438095 2.438095-9.752381 0-12.190477l-75.580952-75.580952c-2.438095-2.438095-9.752381-2.438095-12.190477 0l-43.885714 43.885714c-2.438095 2.438095-2.438095 9.752381 0 12.190476l75.580952 75.580953c4.87619 2.438095 9.752381 2.438095 12.190477 0zM504.685714 630.247619c-153.6 0-277.942857-129.219048-277.942857-290.133333v-212.114286c0-17.066667 12.190476-29.257143 26.819048-29.257143h95.085714v229.180953h80.457143v-229.180953H755.809524c14.628571 0 26.819048 12.190476 26.819047 29.257143v212.114286c0 160.914286-124.342857 290.133333-277.942857 290.133333zM824.07619-28.038095H195.047619c-4.87619 0-9.752381 4.87619-9.752381 9.752381v41.447619c0 17.066667 14.628571 31.695238 31.695238 31.695238H804.571429c17.066667 0 31.695238-14.628571 31.695238-31.695238v-41.447619c-2.438095-4.87619-7.314286-9.752381-12.190477-9.752381z"  horiz-adv-x="1024" />

    
    <glyph glyph-name="f-setting" unicode="&#59217;" d="M512 476.647619c-21.942857 0-43.885714-9.752381-60.952381-24.380952-17.066667-17.066667-24.380952-39.009524-24.380952-60.952381 0-21.942857 9.752381-43.885714 24.380952-60.952381 17.066667-17.066667 39.009524-24.380952 60.952381-24.380953 21.942857 0 43.885714 9.752381 60.952381 24.380953 17.066667 17.066667 24.380952 39.009524 24.380952 60.952381s-9.752381 43.885714-24.380952 60.952381c-17.066667 14.628571-39.009524 24.380952-60.952381 24.380952zM906.971429 271.847619l-63.390477 53.638095c2.438095 17.066667 4.87619 36.571429 4.876191 56.076191 0 19.504762-2.438095 36.571429-4.876191 56.07619l63.390477 53.638095c9.752381 7.314286 12.190476 21.942857 9.752381 34.133334v2.438095c-17.066667 48.761905-43.885714 92.647619-75.580953 131.657143l-2.438095 2.438095c-9.752381 7.314286-21.942857 12.190476-34.133333 7.314286l-78.019048-26.819048c-29.257143 24.380952-60.952381 41.447619-95.085714 56.076191l-14.628572 80.457143c-2.438095 12.190476-12.190476 21.942857-24.380952 24.380952h-2.438095c-48.761905 9.752381-102.4 9.752381-151.161905 0h-2.438095c-12.190476-2.438095-21.942857-12.190476-24.380953-24.380952l-14.628571-82.895239c-34.133333-12.190476-65.828571-31.695238-95.085714-56.07619L219.428571 669.257143c-12.190476 4.87619-24.380952 0-34.133333-9.752381v-2.438095c-34.133333-39.009524-58.514286-82.895238-75.580952-131.657143v-2.438095c-4.87619-12.190476 0-24.380952 9.752381-34.133334l63.390476-53.638095c-2.438095-17.066667-4.87619-36.571429-4.876191-53.638095 0-19.504762 2.438095-36.571429 4.876191-53.638095l-63.390476-53.638096c-9.752381-7.314286-12.190476-21.942857-9.752381-34.133333v-2.438095c17.066667-48.761905 43.885714-92.647619 75.580952-131.657143l2.438095-2.438095c7.314286-12.190476 19.504762-14.628571 31.695238-9.752381l78.019048 26.819047c29.257143-24.380952 60.952381-41.447619 95.085714-56.07619l14.628572-82.895238c2.438095-12.190476 12.190476-21.942857 24.380952-24.380953h2.438095c24.380952-4.87619 51.2-7.314286 75.580953-7.314285s51.2 2.438095 75.580952 7.314285h2.438095c12.190476 2.438095 21.942857 12.190476 24.380953 24.380953l14.628571 80.457143c34.133333 12.190476 65.828571 31.695238 95.085714 56.07619l78.019048-26.819048c12.190476-4.87619 24.380952 0 34.133333 9.752381l2.438096 2.438096c34.133333 39.009524 58.514286 82.895238 75.580952 131.657142V237.71428600000002c9.752381 12.190476 4.87619 26.819048-4.87619 34.133333z m-394.971429-48.761905c-92.647619 0-168.228571 75.580952-168.228571 168.228572s75.580952 168.228571 168.228571 168.228571 168.228571-75.580952 168.228571-168.228571-75.580952-168.228571-168.228571-168.228572z"  horiz-adv-x="1024" />

    
    <glyph glyph-name="f-statistics" unicode="&#59218;" d="M846.019048 379.12381000000005h-341.333334v341.333333c0 4.87619-2.438095 7.314286-7.314285 7.314286h-24.380953c-51.2 0-99.961905-9.752381-148.723809-29.257143-46.32381-19.504762-85.333333-46.32381-121.904762-82.895238s-63.390476-75.580952-80.457143-121.904762c-19.504762-46.32381-29.257143-97.52381-29.257143-148.72381s9.752381-99.961905 29.257143-148.723809c19.504762-46.32381 46.32381-85.333333 80.457143-121.904762 34.133333-34.133333 75.580952-63.390476 121.904762-80.457143 46.32381-19.504762 97.52381-29.257143 148.723809-29.257143s99.961905 9.752381 148.72381 29.257143c46.32381 19.504762 85.333333 46.32381 121.904762 82.895238 34.133333 34.133333 63.390476 75.580952 82.895238 121.904762 19.504762 46.32381 29.257143 97.52381 29.257143 148.723809v24.380953c-2.438095 2.438095-4.87619 7.314286-9.752381 7.314286zM931.352381 469.333333l-2.438095 24.380953c-7.314286 78.019048-41.447619 153.6-97.52381 209.67619s-131.657143 90.209524-209.67619 97.52381l-24.380953 2.438095c-4.87619 0-7.314286-2.438095-7.314285-7.314286v-329.142857c0-2.438095 2.438095-7.314286 7.314285-7.314286H926.47619c0 2.438095 4.87619 4.87619 4.876191 9.752381z"  horiz-adv-x="1024" />

    
    <glyph glyph-name="f-voice" unicode="&#59219;" d="M512 301.10476200000005c90.209524 0 160.914286 68.266667 160.914286 151.161905V657.066667c0 82.895238-73.142857 151.161905-160.914286 151.161904s-160.914286-68.266667-160.914286-151.161904v-202.361905c0-85.333333 70.704762-153.6 160.914286-153.6zM836.266667 481.52381c0 4.87619-2.438095 7.314286-7.314286 7.314285h-58.514286c-4.87619 0-7.314286-2.438095-7.314285-7.314285 0-143.847619-112.152381-260.87619-251.12381-260.876191S260.87619 337.67619 260.87619 481.52381c0 4.87619-2.438095 7.314286-7.314285 7.314285H195.047619c-4.87619 0-7.314286-2.438095-7.314286-7.314285 0-173.104762 124.342857-314.514286 285.257143-336.457143v-104.838096h-143.847619c-14.628571 0-24.380952-14.628571-24.380952-31.695238v-36.571428c0-4.87619 2.438095-7.314286 4.87619-7.314286h402.285715c2.438095 0 4.87619 2.438095 4.87619 7.314286v36.571428c0 19.504762-9.752381 31.695238-24.380952 31.695238h-146.285715v104.838096c163.352381 17.066667 290.133333 160.914286 290.133334 336.457143z"  horiz-adv-x="1024" />

    
    <glyph glyph-name="f-send" unicode="&#59220;" d="M897.219048 727.771429L119.466667 427.885714c-43.885714-17.066667-43.885714-41.447619 2.438095-56.07619l187.733333-56.076191 75.580953-226.742857c9.752381-29.257143 36.571429-36.571429 58.514285-14.628571l97.52381 97.523809 195.047619-143.847619c24.380952-19.504762 51.2-9.752381 58.514286 21.942857l141.409523 641.219048c7.314286 31.695238-9.752381 46.32381-39.009523 36.571429z m-119.466667-146.285715L446.171429 286.47619c-4.87619-4.87619-12.190476-17.066667-12.190477-24.380952l-14.628571-138.971428c-2.438095-14.628571-7.314286-17.066667-12.190476-2.438096l-63.390476 192.609524c-2.438095 7.314286 0 17.066667 7.314285 21.942857l421.790476 253.561905c26.819048 17.066667 29.257143 14.628571 4.876191-7.314286z"  horiz-adv-x="1024" />

    
    <glyph glyph-name="f-Approval" unicode="&#59221;" d="M675.352381 101.18095200000005v60.952381c-36.571429 17.066667-60.952381 53.638095-60.952381 95.085715 0 58.514286 46.32381 104.838095 102.4 104.838095 56.07619 0 102.4-46.32381 102.4-104.838095 0-43.885714-26.819048-80.457143-60.952381-95.085715v-60.952381h107.276191c14.628571 0 34.133333-9.752381 34.133333-31.695238V18.285713999999984H531.504762v51.2c0 17.066667 14.628571 31.695238 31.695238 31.695238h112.152381zM551.009524-20.723809999999958H877.714286v-41.447619H551.009524zM577.828571 735.085714H324.266667c-21.942857 0-41.447619 17.066667-41.447619 41.447619 0 21.942857 17.066667 41.447619 41.447619 41.447619h253.561904c21.942857 0 41.447619-17.066667 41.447619-41.447619s-17.066667-41.447619-41.447619-41.447619zM477.866667 52.419047999999975c0 56.07619 46.32381 102.4 102.4 102.4h4.87619c-9.752381 14.628571-19.504762 31.695238-24.380952 48.761904H221.866667v80.457143h334.019047c17.066667 73.142857 85.333333 126.780952 165.790476 121.904762 21.942857-2.438095 43.885714-7.314286 63.390477-17.066667v341.333334c0 17.066667-14.628571 31.695238-29.257143 31.695238h-73.142857v-31.695238c0-17.066667-14.628571-41.447619-31.695238-41.447619H253.561905c-17.066667 0-31.695238 24.380952-31.695238 41.447619V759.466667h-73.142857c-17.066667 0-31.695238-14.628571-31.695239-31.695238v-763.12381c0-17.066667 14.628571-31.695238 31.695239-31.695238h326.704761v119.466667zM221.866667 525.4095239999999h458.361904v-80.457143H221.866667v80.457143z"  horiz-adv-x="1024" />

    
    <glyph glyph-name="f-timel" unicode="&#59222;" d="M512 830.171429C265.752381 830.171429 65.828571 630.247619 65.828571 384S265.752381-62.17142899999999 512-62.17142899999999 958.171429 137.752381 958.171429 384 758.247619 830.171429 512 830.171429zM746.057143 262.095238c-9.752381-19.504762-34.133333-29.257143-53.638095-19.504762l-219.428572 104.838095s-2.438095 0-2.438095 2.438096l-2.438095 2.438095-2.438096 2.438095-2.438095 2.438095s0 2.438095-2.438095 2.438096v2.438095 2.438095 2.438095 2.438096 2.438095 2.438095 2.438095 2.438096 2.438095 243.809524c0 21.942857 17.066667 41.447619 41.447619 41.447619s41.447619-17.066667 41.447619-41.447619V408.380952l195.047619-92.647619c9.752381-9.752381 17.066667-34.133333 7.314286-53.638095z"  horiz-adv-x="1024" />

    
    <glyph glyph-name="f-Disposalcenter" unicode="&#59223;" d="M770.438095 330.361905c-104.838095 0-190.171429-85.333333-190.171428-190.171429s85.333333-190.171429 190.171428-190.171428 190.171429 85.333333 190.171429 190.171428-85.333333 190.171429-190.171429 190.171429z m-19.504762-282.819048c-4.87619-4.87619-12.190476-4.87619-19.504762-2.438095-2.438095 0-4.87619 2.438095-7.314285 4.87619l-85.333334 73.142858c-7.314286 7.314286-9.752381 19.504762-2.438095 29.257142 7.314286 7.314286 19.504762 9.752381 29.257143 2.438096l73.142857-60.952381 141.409524 141.409523c7.314286 7.314286 17.066667 7.314286 24.380952 0l4.876191-4.87619c7.314286-7.314286 7.314286-17.066667 0-24.380952l-158.476191-158.476191zM585.142857 747.27619H331.580952c-21.942857 0-41.447619 17.066667-41.447619 41.44762 0 21.942857 17.066667 41.447619 41.447619 41.447619H585.142857c21.942857 0 41.447619-17.066667 41.447619-41.447619s-19.504762-41.447619-41.447619-41.44762zM514.438095 142.62857099999997c0 21.942857 2.438095 46.32381 9.752381 65.828572h-292.571428v80.457143h336.457142c41.447619 48.761905 104.838095 80.457143 175.542858 80.457143 17.066667 0 34.133333-2.438095 48.761904-4.876191V725.333333c0 17.066667-14.628571 41.447619-31.695238 41.447619h-73.142857V725.333333c0-17.066667-14.628571-29.257143-31.695238-29.257143H260.87619c-17.066667 0-31.695238 14.628571-31.695238 29.257143V766.7809520000001h-73.142857c-17.066667 0-31.695238-24.380952-31.695238-41.447619v-750.933333c0-17.066667 14.628571-31.695238 31.695238-31.695238h470.552381c-68.266667 41.447619-112.152381 114.590476-112.152381 199.923809z m-285.257143 390.095239h458.361905v-80.457143H229.180952v80.457143z"  horiz-adv-x="1024" />

    
    <glyph glyph-name="f-more-gengduo" unicode="&#59224;" d="M229.180952 483.961905c-58.514286 0-104.838095-46.32381-104.838095-102.4 0-56.07619 46.32381-102.4 104.838095-102.4s104.838095 46.32381 104.838096 102.4c0 58.514286-46.32381 102.4-104.838096 102.4zM512 483.961905c-58.514286 0-104.838095-46.32381-104.838095-102.4 0-56.07619 46.32381-102.4 104.838095-102.4s104.838095 46.32381 104.838095 102.4c0 58.514286-46.32381 102.4-104.838095 102.4zM794.819048 483.961905c-58.514286 0-104.838095-46.32381-104.838096-102.4 0-56.07619 46.32381-102.4 104.838096-102.4s104.838095 46.32381 104.838095 102.4c0 58.514286-46.32381 102.4-104.838095 102.4z"  horiz-adv-x="1024" />

    
    <glyph glyph-name="f-Approved-yishenpi" unicode="&#59225;" d="M867.961905 771.657143H156.038095c-17.066667 0-31.695238-14.628571-31.695238-31.695238v-587.580953c0-17.066667 14.628571-31.695238 31.695238-31.695238h238.933334l92.647619-109.714285c12.190476-14.628571 34.133333-14.628571 46.323809 0l92.647619 109.714285h238.933334c17.066667 0 31.695238 14.628571 31.695238 31.695238V739.961905c0 17.066667-14.628571 31.695238-29.257143 31.695238z m-121.904762-175.542857l-243.809524-243.809524c-7.314286-7.314286-21.942857-7.314286-29.257143 0l-143.847619 143.847619c-7.314286 7.314286-7.314286 21.942857 0 29.257143 7.314286 7.314286 21.942857 7.314286 29.257143 0l129.219048-129.219048 229.180952 229.180953c7.314286 7.314286 21.942857 7.314286 29.257143 0 7.314286-9.752381 7.314286-21.942857 0-29.257143z"  horiz-adv-x="1024" />

    
    <glyph glyph-name="f-Notexamined-weishenpi" unicode="&#59226;" d="M867.961905 769.219048H156.038095c-17.066667 0-31.695238-14.628571-31.695238-31.695238v-587.580953c0-17.066667 14.628571-31.695238 31.695238-31.695238h238.933334l92.647619-109.714286c12.190476-14.628571 34.133333-14.628571 46.323809 0l92.647619 109.714286h238.933334c17.066667 0 31.695238 14.628571 31.695238 31.695238V739.961905c0 17.066667-14.628571 29.257143-29.257143 29.257143z m-219.428572-409.6c7.314286-7.314286 7.314286-21.942857 0-29.257143-7.314286-7.314286-21.942857-7.314286-29.257143 0L512 437.638095l-107.27619-107.27619c-7.314286-7.314286-21.942857-7.314286-29.257143 0-7.314286 7.314286-7.314286 21.942857 0 29.257143l107.27619 107.27619-107.27619 107.276191c-7.314286 7.314286-7.314286 21.942857 0 29.257142 7.314286 7.314286 21.942857 7.314286 29.257143 0l107.27619-107.27619 107.27619 107.27619c7.314286 7.314286 21.942857 7.314286 29.257143 0 7.314286-7.314286 7.314286-21.942857 0-29.257142l-107.27619-107.276191 107.27619-107.27619z"  horiz-adv-x="1024" />

    
    <glyph glyph-name="f-focus" unicode="&#59227;" d="M536.380952 735.085714l102.4-209.67619 231.619048-34.133334c24.380952-2.438095 34.133333-34.133333 17.066667-51.2l-165.790477-163.35238 39.009524-229.180953c4.87619-24.380952-21.942857-43.885714-43.885714-31.695238l-207.238095 107.276191-207.238095-104.838096c-21.942857-12.190476-46.32381 7.314286-43.885715 31.695238l39.009524 229.180953-165.790476 163.352381c-17.066667 17.066667-7.314286 46.32381 17.066667 51.2l231.619047 34.133333 102.4 209.676191c9.752381 21.942857 41.447619 21.942857 53.638095-2.438096z"  horiz-adv-x="1024" />

    
    <glyph glyph-name="l-focus" unicode="&#59228;" d="M509.561905 605.866667l56.07619-114.590477 19.504762-39.009523 41.447619-4.876191 126.780953-19.504762-92.647619-90.209524-26.819048-29.257142 7.314286-41.447619 21.942857-126.780953-114.590476 60.952381-36.571429 19.504762-36.571429-19.504762-117.028571-60.952381 21.942857 126.780953 7.314286 41.447619-31.695238 29.257142-92.647619 90.209524 126.780952 19.504762 41.447619 7.314286 19.504762 39.009524 58.514286 112.152381m0 146.285714c-9.752381 0-21.942857-4.87619-26.819048-17.066667l-102.4-209.67619-231.619047-34.133334c-24.380952-2.438095-34.133333-34.133333-17.066667-51.2l165.790476-163.35238-39.009524-229.180953c-2.438095-19.504762 12.190476-34.133333 29.257143-34.133333 4.87619 0 9.752381 0 14.628572 2.438095l207.238095 107.276191 207.238095-107.276191c4.87619-2.438095 9.752381-2.438095 14.628571-2.438095 17.066667 0 31.695238 14.628571 29.257143 34.133333l-39.009524 229.180953 165.790477 163.35238c17.066667 17.066667 7.314286 46.32381-17.066667 51.2l-231.619048 34.133334L536.380952 735.085714c-4.87619 12.190476-17.066667 17.066667-26.819047 17.066667z"  horiz-adv-x="1024" />

    
    <glyph glyph-name="f-drug" unicode="&#59229;" d="M914.285714 635.12381l-117.028571 119.466666c-7.314286 7.314286-21.942857 4.87619-31.695238-2.438095-9.752381-12.190476-9.752381-24.380952-4.876191-31.695238l31.695238-34.133333-68.266666-58.514286 51.2-51.2 68.266666 58.514286L877.714286 603.4285709999999c7.314286-7.314286 21.942857-4.87619 31.695238 2.438096 9.752381 7.314286 12.190476 21.942857 4.87619 29.257143zM865.52381 449.828571l-270.628572 268.190477c-7.314286 4.87619-14.628571 9.752381-24.380952 9.752381s-17.066667-2.438095-24.380953-7.314286c-9.752381-9.752381-12.190476-26.819048-4.87619-39.009524 0-2.438095 2.438095-4.87619 4.87619-4.87619l29.257143-31.695239h-2.438095l-394.971429-365.714285c-17.066667-14.628571-21.942857-41.447619-7.314285-60.952381 0-2.438095 2.438095-4.87619 4.87619-7.314286l41.447619-41.447619-2.438095-2.438095c-4.87619-4.87619-4.87619-12.190476 0-19.504762l2.438095-2.438095 2.438095-2.438096-107.27619-92.647619-4.876191-34.133333c0-4.87619 7.314286-9.752381 12.190477-4.87619l124.342857 107.27619 2.438095-2.438095c2.438095-2.438095 7.314286-4.87619 9.752381-4.876191 4.87619 0 7.314286 0 9.752381 4.876191l2.438095 2.438095 41.447619-41.447619c19.504762-19.504762 51.2-19.504762 73.142857 0L780.190476 440.07619l31.695238-31.695238c7.314286-4.87619 14.628571-9.752381 24.380953-9.752381s17.066667 2.438095 24.380952 7.314286c12.190476 9.752381 14.628571 26.819048 7.314286 39.009524-2.438095 2.438095 0 4.87619-2.438095 4.87619zM536.380952 525.4095239999999c2.438095 2.438095 7.314286 2.438095 9.752381 0l26.819048-24.380953c2.438095-2.438095 2.438095-7.314286 0-9.752381-2.438095-2.438095-7.314286-2.438095-9.752381 0l-26.819048 24.380953c-2.438095 2.438095-2.438095 7.314286 0 9.752381z m-29.257142-29.257143c2.438095 2.438095 7.314286 2.438095 9.75238 0l26.819048-24.380952c2.438095-2.438095 2.438095-7.314286 0-9.752381-2.438095-2.438095-7.314286-2.438095-9.752381 0l-26.819047 24.380952c-2.438095 2.438095-2.438095 4.87619 0 9.752381z m82.895238-146.285714L365.714286 149.942857c-9.752381-9.752381-26.819048-9.752381-34.133334 0l-78.019047 78.019048c-9.752381 9.752381-9.752381 21.942857-2.438095 31.695238l21.942857-21.942857c2.438095-2.438095 7.314286-2.438095 9.752381 0 2.438095 2.438095 2.438095 7.314286 0 9.752381l-21.942858 21.942857 21.942858 19.504762 21.942857-21.942857c2.438095-2.438095 7.314286-2.438095 9.752381 0 2.438095 2.438095 2.438095 7.314286 0 9.752381l-21.942857 21.942857 21.942857 19.504762 21.942857-21.942858c2.438095-2.438095 7.314286-2.438095 9.752381 0 2.438095 2.438095 2.438095 7.314286 0 9.752381l-21.942857 21.942858 21.942857 19.504761 21.942857-21.942857c2.438095-2.438095 7.314286-2.438095 9.752381 0 2.438095 2.438095 2.438095 7.314286 0 9.752381l-21.942857 21.942857 21.942857 19.504762 21.942857-21.942857c2.438095-2.438095 7.314286-2.438095 9.752381 0 2.438095 2.438095 2.438095 7.314286 0 9.752381l-19.504762 17.066667 21.942857 19.504762 21.942857-21.942857c2.438095-2.438095 7.314286-2.438095 9.752381 0 2.438095 2.438095 2.438095 7.314286 0 9.75238l-21.942857 19.504762 21.942857 19.504762 21.942857-21.942857c2.438095-2.438095 7.314286-2.438095 9.752381 0 2.438095 2.438095 2.438095 7.314286 0 9.752381l-21.942857 21.942857 21.942857 19.504762 21.942858-21.942857c2.438095-2.438095 7.314286-2.438095 9.752381 0 2.438095 2.438095 2.438095 7.314286 0 9.752381l-21.942858 21.942857c9.752381 2.438095 19.504762 0 26.819048-4.87619l78.019048-78.019048c9.752381-12.190476 9.752381-26.819048 0-34.133333z m14.628571 170.666666c-2.438095-2.438095-7.314286-2.438095-9.752381 0l-26.819048 24.380953c-2.438095 2.438095-2.438095 7.314286 0 9.752381 2.438095 2.438095 7.314286 2.438095 9.752381 0l26.819048-24.380953c2.438095-4.87619 2.438095-7.314286 0-9.752381z"  horiz-adv-x="1024" />

    
    <glyph glyph-name="f-previous" unicode="&#59230;" d="M831.390476 384v114.590476c0 36.571429-31.695238 68.266667-68.266666 68.266667h-136.533334c-36.571429 0-68.266667-31.695238-68.266666-68.266667v-9.752381c-4.87619 4.87619-9.752381 7.314286-14.628572 9.752381l-119.466667 60.952381c-34.133333 17.066667-73.142857 2.438095-90.209523-29.257143l-51.2-102.4c-60.952381-12.190476-117.028571-53.638095-148.72381-114.590476-53.638095-102.4-12.190476-234.057143 95.085714-287.695238 80.457143-41.447619 175.542857-26.819048 238.933334 29.257143-17.066667 21.942857-29.257143 48.761905-39.009524 75.580952-39.009524-46.32381-107.27619-60.952381-163.352381-31.695238-65.828571 34.133333-92.647619 114.590476-58.514286 182.857143 34.133333 65.828571 114.590476 92.647619 182.857143 58.514286 14.628571-7.314286 26.819048-17.066667 36.571429-26.819048 21.942857 73.142857 70.704762 136.533333 136.533333 173.104762V384c-48.761905-39.009524-80.457143-99.961905-80.457143-168.228571 0-119.466667 97.52381-216.990476 216.990476-216.990477s216.990476 97.52381 216.990477 216.990477c-4.87619 68.266667-36.571429 129.219048-85.333334 168.228571z m-346.209524 56.07619c-9.752381-19.504762-34.133333-26.819048-53.638095-17.066666-19.504762 9.752381-26.819048 34.133333-17.066667 53.638095s34.133333 26.819048 53.638096 17.066667c19.504762-9.752381 26.819048-34.133333 17.066666-53.638096z m209.676191 85.333334c21.942857 0 41.447619-19.504762 41.447619-41.447619 0-21.942857-17.066667-41.447619-41.447619-41.447619s-41.447619 19.504762-41.447619 41.447619c2.438095 24.380952 19.504762 41.447619 41.447619 41.447619z m0-446.171429C619.27619 79.23809500000004 560.761905 140.190476 560.761905 213.33333300000004s60.952381 134.095238 134.095238 134.095238S828.952381 286.47619 828.952381 213.33333300000004c2.438095-73.142857-58.514286-134.095238-134.095238-134.095238zM480.304762 552.228571c36.571429 0 68.266667 31.695238 68.266667 68.266667s-31.695238 68.266667-68.266667 68.266667-68.266667-31.695238-68.266667-68.266667c0-36.571429 29.257143-68.266667 68.266667-68.266667z m0 95.085715c14.628571 0 26.819048-12.190476 26.819048-26.819048 0-14.628571-12.190476-26.819048-26.819048-26.819048s-26.819048 12.190476-26.819048 26.819048c0 14.628571 12.190476 26.819048 26.819048 26.819048zM763.12381 632.685714C763.12381 669.257143 731.428571 700.9523810000001 694.857143 700.9523810000001c-17.066667 0-31.695238-4.87619-43.885714-14.628571 0 4.87619 2.438095 9.752381 2.438095 14.628571 0 36.571429-31.695238 68.266667-68.266667 68.266667S519.314286 737.52381 519.314286 700.9523810000001s31.695238-68.266667 68.266666-68.266667c17.066667 0 31.695238 7.314286 43.885715 14.628572 0-4.87619-2.438095-9.752381-2.438096-14.628572 0-36.571429 29.257143-68.266667 68.266667-68.266666 36.571429 2.438095 65.828571 31.695238 65.828572 68.266666z m-175.542858 41.447619c-14.628571 0-26.819048 12.190476-26.819047 26.819048 0 14.628571 12.190476 26.819048 26.819047 26.819048s26.819048-12.190476 26.819048-26.819048c0-14.628571-12.190476-26.819048-26.819048-26.819048z m80.457143-41.447619c0 14.628571 12.190476 26.819048 26.819048 26.819048s26.819048-12.190476 26.819047-26.819048c0-14.628571-12.190476-26.819048-26.819047-26.819047s-26.819048 12.190476-26.819048 26.819047z"  horiz-adv-x="1024" />

    
    <glyph glyph-name="f-run" unicode="&#59231;" d="M831.390476 418.133333s-124.342857-26.819048-158.47619-36.571428c-34.133333-9.752381-75.580952 58.514286-87.771429 60.952381-7.314286-21.942857-31.695238-82.895238-43.885714-124.342857 21.942857 0 134.095238-34.133333 136.533333-53.638096 4.87619-19.504762 56.07619-236.495238 56.076191-236.495238s21.942857-46.32381-41.447619-63.390476c-63.390476-17.066667-65.828571 34.133333-65.828572 34.133333s-43.885714 165.790476-48.761905 175.542858c-2.438095 9.752381-85.333333 26.819048-104.838095 21.942857-19.504762-4.87619-58.514286-146.285714-99.961905-156.038096-51.2-12.190476-202.361905 80.457143-202.361904 80.457143s-58.514286 14.628571-46.32381 70.704762S195.047619 230.39999999999998 195.047619 230.39999999999998s107.27619-58.514286 119.466667-51.2c12.190476 7.314286 19.504762 46.32381 36.571428 87.771429 0 14.628571 43.885714 131.657143 43.885715 131.657142s24.380952 78.019048 14.628571 82.895239c-12.190476 7.314286-26.819048-7.314286-34.133333-19.504762-7.314286-12.190476-34.133333-60.952381-80.457143-124.342858-41.447619-56.07619-114.590476-4.87619-82.895238 48.761905 24.380952 43.885714 92.647619 170.666667 141.409524 195.047619s134.095238 36.571429 204.8 19.504762c73.142857-17.066667 121.904762-97.52381 136.533333-109.714286 14.628571-9.752381 109.714286 21.942857 109.714286 21.942858s56.07619 19.504762 68.266666-31.695238c17.066667-51.2-41.447619-63.390476-41.447619-63.390477zM604.647619 627.809524c-51.2-14.628571-102.4 14.628571-117.028571 65.828571-14.628571 51.2 17.066667 102.4 65.828571 117.028572s102.4-17.066667 117.028571-65.828572c14.628571-53.638095-14.628571-104.838095-65.828571-117.028571z"  horiz-adv-x="1024" />

    
    <glyph glyph-name="f-Mentalillness" unicode="&#59232;" d="M875.27619 396.190476L797.257143 505.904762c-4.87619 26.819048-9.752381 46.32381-12.190476 53.638095-31.695238 136.533333-148.72381 243.809524-295.009524 253.561905C309.638095 822.857143 156.038095 688.7619050000001 143.847619 508.342857 141.409524 481.52381 143.847619 457.142857 146.285714 432.761905v-4.876191c4.87619-31.695238 17.066667-63.390476 31.695238-90.209524 21.942857-48.761905 53.638095-107.27619 99.961905-153.6l-19.504762-224.304761h243.809524V91.42857100000003c129.219048-19.504762 277.942857-14.628571 302.32381 2.438096 17.066667 14.628571 17.066667 117.028571 12.190476 221.866666l51.2 36.571429c14.628571 9.752381 17.066667 29.257143 7.314285 43.885714z m-321.828571 43.885714c9.752381-9.752381 9.752381-24.380952 0-34.133333l-4.87619-4.87619c-9.752381-9.752381-24.380952-9.752381-34.133334 0l-78.019047 78.019047-78.019048-78.019047c-9.752381-9.752381-24.380952-9.752381-34.133333 0l-7.314286 4.87619c-9.752381 9.752381-9.752381 24.380952 0 34.133333l78.019048 78.019048-78.019048 78.019048c-9.752381 9.752381-9.752381 24.380952 0 34.133333l4.87619 4.876191c9.752381 9.752381 24.380952 9.752381 34.133334 0l78.019047-78.019048 78.019048 78.019048c9.752381 9.752381 24.380952 9.752381 34.133333 0l4.876191-4.876191c9.752381-9.752381 9.752381-24.380952 0-34.133333l-78.019048-78.019048 80.457143-78.019048z"  horiz-adv-x="1024" />

    
    <glyph glyph-name="f-poison" unicode="&#59233;" d="M241.371429 405.942857c31.695238-36.571429 75.580952-60.952381 131.657142-78.019047v-12.190477c0-14.628571 4.87619-29.257143 17.066667-39.009523 9.752381-9.752381 24.380952-17.066667 39.009524-17.066667 17.066667 0 29.257143 2.438095 36.571428 7.314286 12.190476-9.752381 26.819048-14.628571 41.44762-14.628572 14.628571 0 26.819048 4.87619 39.009523 12.190476 7.314286-7.314286 19.504762-9.752381 34.133334-7.314285 17.066667 2.438095 29.257143 7.314286 39.009523 17.066666 9.752381 9.752381 17.066667 24.380952 17.066667 39.009524v9.752381c60.952381 14.628571 107.27619 41.447619 141.409524 80.457143 31.695238 36.571429 48.761905 78.019048 48.761905 126.780952 0 9.752381 0 21.942857-2.438096 34.133334-12.190476 73.142857-43.885714 131.657143-99.961904 177.980952-58.514286 51.2-129.219048 75.580952-212.114286 75.580952-82.895238 0-153.6-24.380952-212.114286-75.580952-56.07619-48.761905-87.771429-107.27619-99.961904-180.419048-2.438095-12.190476-2.438095-24.380952-2.438096-34.133333-2.438095-46.32381 12.190476-87.771429 43.885715-121.904762z m334.019047 199.92381c17.066667 17.066667 36.571429 26.819048 60.952381 26.819047s43.885714-9.752381 60.952381-26.819047c17.066667-17.066667 24.380952-39.009524 24.380952-63.390477s-7.314286-46.32381-24.380952-63.390476c-17.066667-17.066667-36.571429-26.819048-60.952381-26.819047s-43.885714 9.752381-60.952381 26.819047c-17.066667 17.066667-24.380952 39.009524-24.380952 63.390476s7.314286 46.32381 24.380952 63.390477z m-90.209524-177.980953c7.314286 9.752381 17.066667 14.628571 24.380953 14.628572 7.314286 0 14.628571-4.87619 21.942857-17.066667 7.314286-12.190476 9.752381-21.942857 9.752381-34.133333 0-17.066667-9.752381-24.380952-31.695238-24.380953-14.628571 0-24.380952 4.87619-31.695238 9.752381-4.87619 4.87619-4.87619 9.752381-4.876191 17.066667 0 14.628571 4.87619 24.380952 12.190476 34.133333z m-170.666666 177.980953c17.066667 17.066667 36.571429 26.819048 60.952381 26.819047s43.885714-9.752381 60.952381-26.819047c17.066667-17.066667 24.380952-39.009524 24.380952-63.390477s-7.314286-46.32381-24.380952-63.390476c-17.066667-17.066667-36.571429-26.819048-60.952381-26.819047s-43.885714 9.752381-60.952381 26.819047c-17.066667 17.066667-24.380952 39.009524-24.380953 63.390476s7.314286 46.32381 24.380953 63.390477z m0 0M826.514286 118.24761899999999c-9.752381 34.133333-31.695238 7.314286-51.2 0-21.942857-9.752381-41.447619-2.438095-85.333334 4.876191h-4.87619c-19.504762 4.87619-39.009524 12.190476-56.076191 19.504761 21.942857 7.314286 41.447619 12.190476 60.952381 19.504762h7.314286c63.390476 19.504762 80.457143-19.504762 99.961905-9.752381 41.447619 21.942857-7.314286 48.761905-17.066667 75.580953-9.752381 29.257143 12.190476 75.580952-24.380952 95.085714-34.133333 17.066667-29.257143-14.628571-36.571429-34.133333-7.314286-19.504762-29.257143-29.257143-65.828571-51.2-2.438095 0-2.438095-2.438095-4.876191-2.438096-41.447619-19.504762-87.771429-36.571429-134.095238-53.638095-60.952381 24.380952-121.904762 51.2-175.542857 75.580953-36.571429 24.380952-26.819048 56.07619-46.323809 60.952381-46.32381 9.752381-31.695238-39.009524-43.885715-63.390477-12.190476-26.819048-63.390476-46.32381-53.638095-80.457142 9.752381-34.133333 31.695238-7.314286 51.2 0 17.066667 7.314286 34.133333 4.87619 63.390476-2.438096 29.257143-7.314286 60.952381-17.066667 92.647619-29.257143-34.133333-12.190476-68.266667-21.942857-102.4-29.257142-46.32381-7.314286-63.390476 21.942857-80.457143 12.190476-39.009524-21.942857 7.314286-46.32381 17.066667-73.142857 9.752381-26.819048-12.190476-73.142857 24.380952-92.647619 31.695238-17.066667 29.257143 14.628571 36.571429 31.695238 7.314286 17.066667 21.942857 24.380952 43.885714 39.009523 53.638095 24.380952 112.152381 48.761905 173.104762 70.704762 48.761905-19.504762 97.52381-39.009524 141.409524-58.514285l4.876191-4.876191c58.514286-26.819048 43.885714-65.828571 65.828571-70.704762 46.32381-9.752381 31.695238 39.009524 43.885714 65.828572 14.628571 29.257143 68.266667 48.761905 56.076191 85.333333z"  horiz-adv-x="1024" />

    
    </font>
</defs>
</svg>
